<?xml version="1.0" encoding="UTF-8" standalone="no"?>
<svg
   xmlns:dc="http://purl.org/dc/elements/1.1/"
   xmlns:cc="http://creativecommons.org/ns#"
   xmlns:rdf="http://www.w3.org/1999/02/22-rdf-syntax-ns#"
   xmlns:svg="http://www.w3.org/2000/svg"
   xmlns="http://www.w3.org/2000/svg"
   height="100"
   width="80"
   xml:space="preserve"
   viewBox="-51 20.7 79.999997 100"
   y="0px"
   x="0px"
   id="Layer_1"
   version="1.1"><metadata
     id="metadata13"><rdf:RDF><cc:Work
         rdf:about=""><dc:format>image/svg+xml</dc:format><dc:type
           rdf:resource="http://purl.org/dc/dcmitype/StillImage" /><dc:title></dc:title></cc:Work></rdf:RDF></metadata><defs
     id="defs11" /><style
     id="style3"
     type="text/css">
	.st0{fill:#EE2A24;}
</style><g
     id="g4149"><path
       class="st0"
       d="m -23.2,29.1 c 0,4.6 -3.7,8.3 -8.3,8.3 -4.6,0 -8.3,-3.7 -8.3,-8.3 0,-4.6 3.7,-8.4 8.3,-8.4 4.6,0 8.3,3.8 8.3,8.4 z"
       id="path5"
       style="fill:#ee2a24" /><path
       class="st0"
       d="m -12.2,72 c 0,0 -4.4,-21.3 -6.5,-25.6 l 0,0 c 0,0 0,0 0,0 -2.1,-4.3 -4.2,-6.8 -12.1,-6.8 l -0.8,0 -0.8,0 c -7.9,0 -10,2.6 -12.1,6.8 0,0 0,0 0,0 l 0,0 C -46.6,50.7 -51,72 -51,72 c -0.3,1.4 0.6,2.9 2,3.2 0.2,0.1 0.4,0.1 0.6,0.1 1.2,0 2.3,-0.8 2.6,-2.1 l 5.9,-21.1 -5.8,35.2 5.5,0 1.7,31.4 c 0,1.1 0.9,2 2,2 1.1,0 2,-0.9 2,-2 l 1.7,-31.4 1,0 1,0 1.7,31.4 c 0,1.1 0.9,2 2,2 1.1,0 2,-0.9 2,-2 l 1.7,-31.4 5.5,0 -5.7,-35.2 5.9,21.1 c 0.3,1.2 1.4,2.1 2.6,2.1 0.2,0 0.4,0 0.6,-0.1 1.7,-0.3 2.6,-1.8 2.3,-3.2 z"
       id="path7"
       style="fill:#ee2a24" /></g><g
     transform="translate(4.3027724,-0.84745874)"
     id="g4153"><path
       class="st0"
       d="m 7.3737729,21.547459 c -4.7000002,0 -8.5000002,3.8 -8.5000002,8.5 0,4.7 3.8,8.5 8.5000002,8.5 4.7000001,0 8.5000001,-3.8 8.5000001,-8.5 0,-4.7 -3.8,-8.5 -8.5000001,-8.5 z"
       id="path5-0"
       style="fill:#ee2a24" /><path
       class="st0"
       d="m 21.473773,47.447459 c -2.1,-4.3 -5.3,-6.8 -13.2000001,-6.8 l -0.8,0 -0.8,0 c -7.9000002,0 -11.2000003,2.6 -13.2000002,6.8 -1,2.1 -3.2,28.800002 -3.2,28.800002 -0.2,1.6 1,3 2.5,3.1 0.1,0 0.2,0 0.3,0 1.4,0 2.6999999,-1.1 2.7999999,-2.6 l 2.2000001,-23.100002 0.6,18.000002 -1.6,46.399999 c -0.1,1.8 1.3,3.4 3.09999996,3.5 0.1,0 0.2,0 0.2,0 1.70000004,0 3.20000004,-1.3 3.30000004,-3.1 L 7.4737729,80.247461 11.273773,118.44746 c 0.1,1.8 1.6,3.1 3.3,3.1 0.1,0 0.1,0 0.2,0 1.8,-0.1 3.2,-1.7 3.1,-3.5 l -1.6,-46.399999 0.6,-18.000002 2.2,23.100002 c 0.1,1.5 1.4,2.6 2.8,2.6 0.1,0 0.2,0 0.3,0 1.6,-0.2 2.7,-1.6 2.5,-3.1 0,-0.1 -2.2,-26.700002 -3.2,-28.800002 z"
       id="path7-9"
       style="fill:#ee2a24" /></g></svg>