<?xml version="1.0" encoding="UTF-8" standalone="no"?>
<svg
   xmlns:dc="http://purl.org/dc/elements/1.1/"
   xmlns:cc="http://creativecommons.org/ns#"
   xmlns:rdf="http://www.w3.org/1999/02/22-rdf-syntax-ns#"
   xmlns:svg="http://www.w3.org/2000/svg"
   xmlns="http://www.w3.org/2000/svg"
   xml:space="preserve"
   style="enable-background:new -49 20.7 42.9 100;"
   viewBox="-49 20.7 42.9 100"
   y="0px"
   x="0px"
   id="Layer_1"
   version="1.1"><metadata
     id="metadata13"><rdf:RDF><cc:Work
         rdf:about=""><dc:format>image/svg+xml</dc:format><dc:type
           rdf:resource="http://purl.org/dc/dcmitype/StillImage" /><dc:title></dc:title></cc:Work></rdf:RDF></metadata><defs
     id="defs11" /><style
     id="style3"
     type="text/css">
	.st0{fill:#EE2A24;}
</style><path
     id="path5"
     d="M-10.3,80.4V119c0,1-0.8,1.8-1.8,1.8s-1.8-0.8-1.8-1.8V80.4c0-1.5-1.2-2.8-2.8-2.8c-1.5,0-2.8,1.3-2.8,2.8  c0,1-0.8,1.8-1.8,1.8c-1,0-1.8-0.8-1.8-1.8c0-2.6,1.6-4.8,3.8-5.8c-4.5-6.7-7-14-8.3-20.2l-8.1,22.9c0,0,0,0,0,0  c0.3,1,5.3,18.6-0.6,38.5c-0.6,2-2.4,3.3-4.4,3.3c-0.4,0-0.9-0.1-1.3-0.2c-2.4-0.7-3.8-3.3-3.1-5.7c4.7-15.9,1.4-30.4,0.7-32.9  c-5-9.7-6-18.7-2.9-26.7c4.9-12.8,18.5-17.8,19.1-18c2.4-0.9,5,0.4,5.9,2.7c0.3,0.8,0.2,2.8,0.2,3c0,0.2,0.2,17.6,9.5,30.4  c0.9,1.2,0.9,2.8,0.1,4C-11.2,76.9-10.3,78.6-10.3,80.4z"
     class="st0" /><path
     id="path7"
     d="M-6.1,29.7c0,5-4,9-9,9c-5,0-9-4-9-9c0-5,4-9,9-9C-10.1,20.7-6.1,24.7-6.1,29.7z"
     class="st0" /></svg>