<?xml version="1.0" encoding="UTF-8" standalone="no"?>
<svg
   xmlns:dc="http://purl.org/dc/elements/1.1/"
   xmlns:cc="http://creativecommons.org/ns#"
   xmlns:rdf="http://www.w3.org/1999/02/22-rdf-syntax-ns#"
   xmlns:svg="http://www.w3.org/2000/svg"
   xmlns="http://www.w3.org/2000/svg"
   xmlns:sodipodi="http://sodipodi.sourceforge.net/DTD/sodipodi-0.dtd"
   xmlns:inkscape="http://www.inkscape.org/namespaces/inkscape"
   version="1.1"
   id="svg4561"
   viewBox="0 0 59.999997 59.999998"
   height="60"
   width="60"
   inkscape:version="0.91 r13725"
   sodipodi:docname="ifrc_logo.svg">
  <sodipodi:namedview
     pagecolor="#ffffff"
     bordercolor="#666666"
     borderopacity="1"
     objecttolerance="10"
     gridtolerance="10"
     guidetolerance="10"
     inkscape:pageopacity="0"
     inkscape:pageshadow="2"
     inkscape:window-width="1366"
     inkscape:window-height="705"
     id="namedview71"
     showgrid="false"
     inkscape:zoom="2.8493986"
     inkscape:cx="-42.129251"
     inkscape:cy="-25.359607"
     inkscape:window-x="-4"
     inkscape:window-y="-4"
     inkscape:window-maximized="1"
     inkscape:current-layer="svg4561"
     fit-margin-top="0"
     fit-margin-left="0"
     fit-margin-right="0"
     fit-margin-bottom="0"
     units="px" />
  <defs
     id="defs4563">
    <pattern
       y="0"
       x="0"
       height="6"
       width="6"
       patternUnits="userSpaceOnUse"
       id="EMFhbasepattern" />
  </defs>
  <metadata
     id="metadata4566">
    <rdf:RDF>
      <cc:Work
         rdf:about="">
        <dc:format>image/svg+xml</dc:format>
        <dc:type
           rdf:resource="http://purl.org/dc/dcmitype/StillImage" />
        <dc:title></dc:title>
      </cc:Work>
    </rdf:RDF>
  </metadata>
  <g
     id="g4410"
     transform="matrix(0.5,0,0,0.5,-233.35472,138.32221)">
    <g
       transform="matrix(0.75748789,0,0,0.75748789,-194.48373,-581.13232)"
       id="g5362">
      <rect
         style="fill:#ffffff"
         y="770.93359"
         x="297.14285"
         width="73.928574"
         height="42.2449"
         id="rect5215" />
      <path
         inkscape:connector-curvature="0"
         style="fill:none;stroke:#cc0000;stroke-width:8.44897938"
         d="m 305.59184,792.05606 27.88163,0 m -13.94081,-13.94082 0,27.88164"
         id="path5217" />
      <circle
         style="fill:#cc0000"
         cx="352.90613"
         cy="792.05603"
         r="14.363265"
         id="circle5219" />
      <circle
         style="fill:#ffffff"
         cx="357.13062"
         cy="792.05603"
         r="11.828571"
         id="circle5221" />
      <path
         inkscape:connector-curvature="0"
         style="fill:none;stroke:#cc0000;stroke-width:1.26734698"
         d="m 300.1,773.89075 68.01429,0 0,36.33062 -68.01429,0 z"
         id="path5223" />
    </g>
    <g
       transform="matrix(0.48315625,0,0,0.48315625,30.510494,-541.3328)"
       id="text4138"
       style="font-style:normal;font-variant:normal;font-weight:normal;font-stretch:normal;font-size:31.875px;line-height:125%;font-family:Arial;-inkscape-font-specification:'Arial, Normal';text-align:start;letter-spacing:0px;word-spacing:0px;writing-mode:lr-tb;text-anchor:start;fill:#000000;fill-opacity:1;stroke:none;stroke-width:1px;stroke-linecap:butt;stroke-linejoin:miter;stroke-opacity:1">
      <path
         inkscape:connector-curvature="0"
         id="path5535"
         d="m 125.66576,1179.3176 q 0,-4.5914 2.55249,-6.8015 2.13226,-1.8365 5.19836,-1.8365 3.40851,0 5.5719,2.2412 2.16339,2.2256 2.16339,6.1633 0,3.1906 -0.96496,5.0272 -0.94941,1.821 -2.78595,2.8326 -1.82099,1.0117 -3.98438,1.0117 -3.47076,0 -5.61859,-2.2257 -2.13226,-2.2256 -2.13226,-6.4123 z m 2.87933,0 q 0,3.175 1.38519,4.7625 1.3852,1.572 3.48633,1.572 2.08557,0 3.47076,-1.5875 1.3852,-1.5875 1.3852,-4.8404 0,-3.0661 -1.40076,-4.6381 -1.38519,-1.5875 -3.4552,-1.5875 -2.10113,0 -3.48633,1.572 -1.38519,1.5719 -1.38519,4.747 z" />
      <path
         inkscape:connector-curvature="0"
         id="path5537"
         d="m 145.12071,1187.582 0,-14.3499 -2.47467,0 0,-2.179 2.47467,0 0,-1.7587 q 0,-1.6654 0.29572,-2.4747 0.40466,-1.0895 1.41632,-1.7587 1.02722,-0.6848 2.86377,-0.6848 1.18286,0 2.61474,0.2801 l -0.42022,2.4436 q -0.87159,-0.1557 -1.64978,-0.1557 -1.27625,0 -1.80542,0.5448 -0.52918,0.5447 -0.52918,2.0388 l 0,1.5253 3.22174,0 0,2.179 -3.22174,0 0,14.3499 -2.78595,0 z" />
      <path
         inkscape:connector-curvature="0"
         id="path5539"
         d="m 162.53679,1187.582 0,-22.8167 10.11658,0 q 3.05053,0 4.63806,0.6225 1.58752,0.607 2.53692,2.1634 0.94941,1.5564 0.94941,3.4396 0,2.428 -1.57196,4.0934 -1.57197,1.6653 -4.85596,2.1167 1.19842,0.5758 1.82098,1.1361 1.32294,1.214 2.5058,3.035 l 3.96881,6.21 -3.79761,0 -3.01941,-4.747 q -1.32293,-2.0544 -2.17895,-3.1439 -0.85602,-1.0895 -1.54083,-1.5253 -0.66925,-0.4358 -1.36963,-0.607 -0.51361,-0.1089 -1.68091,-0.1089 l -3.50189,0 0,10.1321 -3.01941,0 z m 3.01941,-12.7469 6.49017,0 q 2.07001,0 3.23731,-0.4202 1.16729,-0.4358 1.77429,-1.3696 0.60699,-0.9494 0.60699,-2.0545 0,-1.6186 -1.18286,-2.6614 -1.1673,-1.0428 -3.70422,-1.0428 l -7.22168,0 0,7.5485 z" />
      <path
         inkscape:connector-curvature="0"
         id="path5541"
         d="m 196.4818,1182.2592 2.89489,0.3579 q -0.68481,2.537 -2.53692,3.9377 -1.85211,1.4008 -4.73145,1.4008 -3.6264,0 -5.75866,-2.2257 -2.1167,-2.2412 -2.1167,-6.2723 0,-4.1711 2.14782,-6.4746 2.14783,-2.3034 5.5719,-2.3034 3.31513,0 5.41626,2.2567 2.10114,2.2568 2.10114,6.3501 0,0.2491 -0.0156,0.7471 l -12.32666,0 q 0.15564,2.7237 1.54084,4.1712 1.38519,1.4474 3.4552,1.4474 1.54083,0 2.63031,-0.8093 1.08947,-0.8094 1.7276,-2.5836 z m -9.19831,-4.5292 9.22943,0 q -0.18676,-2.0855 -1.05835,-3.1283 -1.3385,-1.6187 -3.47076,-1.6187 -1.92993,0 -3.25287,1.2918 -1.30737,1.2919 -1.44745,3.4552 z" />
      <path
         inkscape:connector-curvature="0"
         id="path5543"
         d="m 213.63329,1187.582 0,-2.0855 q -1.57196,2.4591 -4.6225,2.4591 -1.97663,0 -3.64197,-1.0895 -1.64978,-1.0895 -2.56805,-3.035 -0.90271,-1.961 -0.90271,-4.498 0,-2.4746 0.82489,-4.4824 0.82489,-2.0233 2.47467,-3.0972 1.64978,-1.0739 3.68866,-1.0739 1.49414,0 2.66143,0.6381 1.1673,0.6225 1.89881,1.6342 l 0,-8.1866 2.78595,0 0,22.8167 -2.59918,0 z m -8.8559,-8.2489 q 0,3.1751 1.3385,4.747 1.3385,1.572 3.15949,1.572 1.83654,0 3.11279,-1.4941 1.29181,-1.5097 1.29181,-4.5914 0,-3.393 -1.30738,-4.9805 -1.30737,-1.5875 -3.22174,-1.5875 -1.86767,0 -3.12835,1.5253 -1.24512,1.5252 -1.24512,4.8092 z" />
      <path
         inkscape:connector-curvature="0"
         id="path5545"
         d="m 246.13084,1179.5822 3.01941,0.7626 q -0.9494,3.7198 -3.42407,5.6808 -2.45911,1.9455 -6.02325,1.9455 -3.68866,0 -6.00769,-1.4941 -2.30347,-1.5097 -3.51746,-4.3579 -1.19843,-2.8482 -1.19843,-6.1167 0,-3.5641 1.35407,-6.21 1.36963,-2.6614 3.87543,-4.031 2.52136,-1.3852 5.54077,-1.3852 3.42407,0 5.75867,1.7431 2.33459,1.7432 3.25286,4.9027 l -2.97271,0.7004 q -0.79377,-2.4903 -2.30347,-3.6265 -1.5097,-1.1361 -3.79761,-1.1361 -2.63031,0 -4.4046,1.2607 -1.75873,1.2606 -2.47467,3.3929 -0.71594,2.1167 -0.71594,4.3735 0,2.9104 0.84045,5.0894 0.85602,2.1634 2.64588,3.2373 1.78985,1.0739 3.87542,1.0739 2.53693,0 4.29566,-1.463 1.75873,-1.463 2.38128,-4.3423 z" />
      <path
         inkscape:connector-curvature="0"
         id="path5547"
         d="m 252.49651,1187.582 0,-16.5289 2.52136,0 0,2.5058 q 0.96496,-1.7587 1.77429,-2.319 0.82489,-0.5603 1.80542,-0.5603 1.41632,0 2.87933,0.9027 l -0.96496,2.5992 q -1.02722,-0.607 -2.05445,-0.607 -0.91827,0 -1.64978,0.5603 -0.7315,0.5447 -1.04278,1.5252 -0.46692,1.4942 -0.46692,3.2685 l 0,8.6535 -2.80151,0 z" />
      <path
         inkscape:connector-curvature="0"
         id="path5549"
         d="m 262.1306,1179.3176 q 0,-4.5914 2.55249,-6.8015 2.13226,-1.8365 5.19836,-1.8365 3.40851,0 5.5719,2.2412 2.16339,2.2256 2.16339,6.1633 0,3.1906 -0.96496,5.0272 -0.9494,1.821 -2.78595,2.8326 -1.82098,1.0117 -3.98438,1.0117 -3.47076,0 -5.61859,-2.2257 -2.13226,-2.2256 -2.13226,-6.4123 z m 2.87933,0 q 0,3.175 1.3852,4.7625 1.38519,1.572 3.48632,1.572 2.08558,0 3.47077,-1.5875 1.38519,-1.5875 1.38519,-4.8404 0,-3.0661 -1.40076,-4.6381 -1.38519,-1.5875 -3.4552,-1.5875 -2.10113,0 -3.48632,1.572 -1.3852,1.5719 -1.3852,4.747 z" />
      <path
         inkscape:connector-curvature="0"
         id="path5551"
         d="m 279.7957,1182.6483 2.77039,-0.4358 q 0.23346,1.6653 1.2918,2.5525 1.07392,0.8871 2.98829,0.8871 1.92993,0 2.86377,-0.7782 0.93383,-0.7938 0.93383,-1.8521 0,-0.9494 -0.82489,-1.4942 -0.57586,-0.3735 -2.86377,-0.9494 -3.08166,-0.7782 -4.28009,-1.3385 -1.18286,-0.5758 -1.80542,-1.5719 -0.60699,-1.0117 -0.60699,-2.2257 0,-1.105 0.49805,-2.0388 0.51361,-0.9494 1.38519,-1.572 0.65369,-0.4825 1.77429,-0.8093 1.13617,-0.3424 2.42798,-0.3424 1.94549,0 3.40851,0.5603 1.47857,0.5603 2.17895,1.5252 0.70038,0.9494 0.96497,2.5525 l -2.73926,0.3736 q -0.18677,-1.2763 -1.08948,-1.9922 -0.88714,-0.716 -2.52136,-0.716 -1.92993,0 -2.75482,0.6382 -0.82489,0.6381 -0.82489,1.4941 0,0.5447 0.34241,0.9805 0.3424,0.4514 1.07391,0.7471 0.42023,0.1556 2.47467,0.7159 2.97272,0.7938 4.14001,1.3074 1.18287,0.4981 1.85212,1.463 0.66925,0.965 0.66925,2.3969 0,1.4007 -0.82489,2.6458 -0.80933,1.2296 -2.35016,1.9144 -1.54083,0.6693 -3.48633,0.6693 -3.22174,0 -4.91821,-1.3385 -1.68091,-1.3385 -2.14783,-3.9688 z" />
      <path
         inkscape:connector-curvature="0"
         id="path5553"
         d="m 295.7332,1182.6483 2.77039,-0.4358 q 0.23346,1.6653 1.2918,2.5525 1.07392,0.8871 2.98829,0.8871 1.92993,0 2.86377,-0.7782 0.93383,-0.7938 0.93383,-1.8521 0,-0.9494 -0.82489,-1.4942 -0.57586,-0.3735 -2.86377,-0.9494 -3.08166,-0.7782 -4.28009,-1.3385 -1.18286,-0.5758 -1.80542,-1.5719 -0.60699,-1.0117 -0.60699,-2.2257 0,-1.105 0.49805,-2.0388 0.51361,-0.9494 1.38519,-1.572 0.65369,-0.4825 1.77429,-0.8093 1.13617,-0.3424 2.42798,-0.3424 1.94549,0 3.40851,0.5603 1.47857,0.5603 2.17895,1.5252 0.70038,0.9494 0.96497,2.5525 l -2.73926,0.3736 q -0.18677,-1.2763 -1.08948,-1.9922 -0.88714,-0.716 -2.52136,-0.716 -1.92993,0 -2.75482,0.6382 -0.82489,0.6381 -0.82489,1.4941 0,0.5447 0.34241,0.9805 0.3424,0.4514 1.07391,0.7471 0.42023,0.1556 2.47467,0.7159 2.97272,0.7938 4.14001,1.3074 1.18287,0.4981 1.85212,1.463 0.66925,0.965 0.66925,2.3969 0,1.4007 -0.82489,2.6458 -0.80933,1.2296 -2.35016,1.9144 -1.54083,0.6693 -3.48633,0.6693 -3.22174,0 -4.91821,-1.3385 -1.68091,-1.3385 -2.14783,-3.9688 z" />
      <path
         inkscape:connector-curvature="0"
         id="path5555"
         d="m 332.41747,1185.5432 q -1.5564,1.3229 -3.00385,1.8676 -1.43188,0.5448 -3.08167,0.5448 -2.72369,0 -4.1867,-1.323 -1.46301,-1.3385 -1.46301,-3.4085 0,-1.214 0.54473,-2.2101 0.56031,-1.0116 1.44745,-1.6186 0.90271,-0.607 2.02332,-0.9183 0.82489,-0.2179 2.49023,-0.4202 3.39295,-0.4047 4.99604,-0.965 0.0156,-0.5758 0.0156,-0.7315 0,-1.712 -0.79376,-2.4124 -1.07392,-0.9494 -3.19062,-0.9494 -1.97662,0 -2.92602,0.7004 -0.93384,0.6848 -1.38519,2.4435 l -2.73926,-0.3735 q 0.37353,-1.7587 1.22955,-2.8327 0.85602,-1.0894 2.47467,-1.6653 1.61865,-0.5914 3.75092,-0.5914 2.1167,0 3.43963,0.498 1.32294,0.4981 1.9455,1.2607 0.62256,0.7471 0.87158,1.8988 0.14008,0.7159 0.14008,2.5836 l 0,3.7354 q 0,3.9065 0.1712,4.9493 0.18677,1.0272 0.71594,1.9766 l -2.92602,0 q -0.43579,-0.8716 -0.5603,-2.0388 z m -0.23346,-6.2568 q -1.52527,0.6226 -4.57581,1.0584 -1.7276,0.249 -2.44354,0.5603 -0.71594,0.3113 -1.10504,0.9183 -0.3891,0.5914 -0.3891,1.3229 0,1.1206 0.84045,1.8677 0.85602,0.747 2.49024,0.747 1.61865,0 2.87933,-0.7003 1.26068,-0.716 1.85211,-1.9455 0.45136,-0.9494 0.45136,-2.8015 l 0,-1.0273 z" />
      <path
         inkscape:connector-curvature="0"
         id="path5557"
         d="m 339.37456,1187.582 0,-16.5289 2.52136,0 0,2.3502 q 1.82098,-2.7237 5.26062,-2.7237 1.49414,0 2.73926,0.5447 1.26068,0.5292 1.88324,1.4008 0.62256,0.8715 0.87158,2.07 0.15564,0.7782 0.15564,2.7237 l 0,10.1632 -2.80151,0 0,-10.0543 q 0,-1.712 -0.32685,-2.5525 -0.32684,-0.856 -1.1673,-1.354 -0.82489,-0.5137 -1.94549,-0.5137 -1.78986,0 -3.09723,1.1362 -1.29181,1.1362 -1.29181,4.3112 l 0,9.0271 -2.80151,0 z" />
      <path
         inkscape:connector-curvature="0"
         id="path5559"
         d="m 367.84105,1187.582 0,-2.0855 q -1.57196,2.4591 -4.6225,2.4591 -1.97662,0 -3.64197,-1.0895 -1.64978,-1.0895 -2.56805,-3.035 -0.90271,-1.961 -0.90271,-4.498 0,-2.4746 0.82489,-4.4824 0.82489,-2.0233 2.47467,-3.0972 1.64978,-1.0739 3.68866,-1.0739 1.49414,0 2.66144,0.6381 1.1673,0.6225 1.8988,1.6342 l 0,-8.1866 2.78595,0 0,22.8167 -2.59918,0 z m -8.8559,-8.2489 q 0,3.1751 1.3385,4.747 1.33851,1.572 3.15949,1.572 1.83655,0 3.11279,-1.4941 1.29181,-1.5097 1.29181,-4.5914 0,-3.393 -1.30737,-4.9805 -1.30738,-1.5875 -3.22174,-1.5875 -1.86768,0 -3.12836,1.5253 -1.24512,1.5252 -1.24512,4.8092 z" />
      <path
         inkscape:connector-curvature="0"
         id="path5561"
         d="m 384.10539,1187.582 0,-22.8167 10.11658,0 q 3.05054,0 4.63806,0.6225 1.58753,0.607 2.53693,2.1634 0.9494,1.5564 0.9494,3.4396 0,2.428 -1.57196,4.0934 -1.57196,1.6653 -4.85596,2.1167 1.19843,0.5758 1.82099,1.1361 1.32293,1.214 2.50579,3.035 l 3.96882,6.21 -3.79761,0 -3.01941,-4.747 q -1.32294,-2.0544 -2.17896,-3.1439 -0.85601,-1.0895 -1.54083,-1.5253 -0.66925,-0.4358 -1.36963,-0.607 -0.51361,-0.1089 -1.68091,-0.1089 l -3.50189,0 0,10.1321 -3.01941,0 z m 3.01941,-12.7469 6.49017,0 q 2.07001,0 3.23731,-0.4202 1.1673,-0.4358 1.77429,-1.3696 0.607,-0.9494 0.607,-2.0545 0,-1.6186 -1.18287,-2.6614 -1.16729,-1.0428 -3.70422,-1.0428 l -7.22168,0 0,7.5485 z" />
      <path
         inkscape:connector-curvature="0"
         id="path5563"
         d="m 418.0504,1182.2592 2.8949,0.3579 q -0.68482,2.537 -2.53693,3.9377 -1.85211,1.4008 -4.73144,1.4008 -3.62641,0 -5.75867,-2.2257 -2.1167,-2.2412 -2.1167,-6.2723 0,-4.1711 2.14783,-6.4746 2.14782,-2.3034 5.5719,-2.3034 3.31512,0 5.41626,2.2567 2.10113,2.2568 2.10113,6.3501 0,0.2491 -0.0156,0.7471 l -12.32666,0 q 0.15564,2.7237 1.54083,4.1712 1.38519,1.4474 3.4552,1.4474 1.54083,0 2.63031,-0.8093 1.08948,-0.8094 1.7276,-2.5836 z m -9.1983,-4.5292 9.22943,0 q -0.18677,-2.0855 -1.05835,-3.1283 -1.3385,-1.6187 -3.47077,-1.6187 -1.92993,0 -3.25286,1.2918 -1.30738,1.2919 -1.44745,3.4552 z" />
      <path
         inkscape:connector-curvature="0"
         id="path5565"
         d="m 435.20189,1187.582 0,-2.0855 q -1.57196,2.4591 -4.6225,2.4591 -1.97662,0 -3.64197,-1.0895 -1.64978,-1.0895 -2.56805,-3.035 -0.90271,-1.961 -0.90271,-4.498 0,-2.4746 0.82489,-4.4824 0.82489,-2.0233 2.47467,-3.0972 1.64978,-1.0739 3.68866,-1.0739 1.49414,0 2.66144,0.6381 1.1673,0.6225 1.8988,1.6342 l 0,-8.1866 2.78595,0 0,22.8167 -2.59918,0 z m -8.8559,-8.2489 q 0,3.1751 1.3385,4.747 1.3385,1.572 3.15949,1.572 1.83655,0 3.11279,-1.4941 1.29181,-1.5097 1.29181,-4.5914 0,-3.393 -1.30737,-4.9805 -1.30738,-1.5875 -3.22174,-1.5875 -1.86768,0 -3.12836,1.5253 -1.24512,1.5252 -1.24512,4.8092 z" />
      <path
         inkscape:connector-curvature="0"
         id="path5567"
         d="m 467.69945,1179.5822 3.01941,0.7626 q -0.94941,3.7198 -3.42408,5.6808 -2.4591,1.9455 -6.02325,1.9455 -3.68866,0 -6.00769,-1.4941 -2.30347,-1.5097 -3.51746,-4.3579 -1.19842,-2.8482 -1.19842,-6.1167 0,-3.5641 1.35406,-6.21 1.36963,-2.6614 3.87543,-4.031 2.52136,-1.3852 5.54077,-1.3852 3.42407,0 5.75867,1.7431 2.33459,1.7432 3.25287,4.9027 l -2.97272,0.7004 q -0.79376,-2.4903 -2.30347,-3.6265 -1.5097,-1.1361 -3.7976,-1.1361 -2.63031,0 -4.40461,1.2607 -1.75872,1.2606 -2.47467,3.3929 -0.71594,2.1167 -0.71594,4.3735 0,2.9104 0.84046,5.0894 0.85601,2.1634 2.64587,3.2373 1.78986,1.0739 3.87543,1.0739 2.53692,0 4.29565,-1.463 1.75873,-1.463 2.38129,-4.3423 z" />
      <path
         inkscape:connector-curvature="0"
         id="path5569"
         d="m 474.06511,1187.582 0,-16.5289 2.52136,0 0,2.5058 q 0.96497,-1.7587 1.77429,-2.319 0.82489,-0.5603 1.80542,-0.5603 1.41632,0 2.87934,0.9027 l -0.96497,2.5992 q -1.02722,-0.607 -2.05444,-0.607 -0.91828,0 -1.64978,0.5603 -0.73151,0.5447 -1.04279,1.5252 -0.46692,1.4942 -0.46692,3.2685 l 0,8.6535 -2.80151,0 z" />
      <path
         inkscape:connector-curvature="0"
         id="path5571"
         d="m 496.05699,1182.2592 2.8949,0.3579 q -0.68482,2.537 -2.53693,3.9377 -1.85211,1.4008 -4.73144,1.4008 -3.62641,0 -5.75867,-2.2257 -2.1167,-2.2412 -2.1167,-6.2723 0,-4.1711 2.14783,-6.4746 2.14783,-2.3034 5.5719,-2.3034 3.31512,0 5.41626,2.2567 2.10113,2.2568 2.10113,6.3501 0,0.2491 -0.0156,0.7471 l -12.32666,0 q 0.15564,2.7237 1.54083,4.1712 1.38519,1.4474 3.4552,1.4474 1.54083,0 2.63031,-0.8093 1.08948,-0.8094 1.7276,-2.5836 z m -9.1983,-4.5292 9.22943,0 q -0.18677,-2.0855 -1.05835,-3.1283 -1.3385,-1.6187 -3.47076,-1.6187 -1.92994,0 -3.25287,1.2918 -1.30738,1.2919 -1.44745,3.4552 z" />
      <path
         inkscape:connector-curvature="0"
         id="path5573"
         d="m 501.3643,1182.6483 2.77039,-0.4358 q 0.23346,1.6653 1.29181,2.5525 1.07391,0.8871 2.98828,0.8871 1.92993,0 2.86377,-0.7782 0.93384,-0.7938 0.93384,-1.8521 0,-0.9494 -0.82489,-1.4942 -0.57587,-0.3735 -2.86377,-0.9494 -3.08167,-0.7782 -4.28009,-1.3385 -1.18286,-0.5758 -1.80542,-1.5719 -0.607,-1.0117 -0.607,-2.2257 0,-1.105 0.49805,-2.0388 0.51361,-0.9494 1.38519,-1.572 0.65369,-0.4825 1.77429,-0.8093 1.13617,-0.3424 2.42798,-0.3424 1.9455,0 3.40851,0.5603 1.47858,0.5603 2.17896,1.5252 0.70037,0.9494 0.96496,2.5525 l -2.73926,0.3736 q -0.18676,-1.2763 -1.08947,-1.9922 -0.88715,-0.716 -2.52137,-0.716 -1.92993,0 -2.75482,0.6382 -0.82489,0.6381 -0.82489,1.4941 0,0.5447 0.34241,0.9805 0.34241,0.4514 1.07391,0.7471 0.42023,0.1556 2.47467,0.7159 2.97272,0.7938 4.14002,1.3074 1.18286,0.4981 1.85211,1.463 0.66925,0.965 0.66925,2.3969 0,1.4007 -0.82489,2.6458 -0.80933,1.2296 -2.35016,1.9144 -1.54083,0.6693 -3.48633,0.6693 -3.22174,0 -4.91821,-1.3385 -1.68091,-1.3385 -2.14783,-3.9688 z" />
      <path
         inkscape:connector-curvature="0"
         id="path5575"
         d="m 529.20824,1181.5276 2.75482,0.358 q -0.45136,2.8482 -2.31903,4.4669 -1.85211,1.6031 -4.56024,1.6031 -3.39295,0 -5.46296,-2.2101 -2.05444,-2.2257 -2.05444,-6.3657 0,-2.677 0.88715,-4.6847 0.88714,-2.0078 2.69256,-3.0039 1.82099,-1.0116 3.95325,-1.0116 2.69257,0 4.4046,1.3696 1.71204,1.3541 2.19452,3.8599 l -2.72369,0.4202 q -0.3891,-1.6654 -1.3852,-2.5058 -0.98053,-0.8405 -2.38128,-0.8405 -2.1167,0 -3.43964,1.5253 -1.32294,1.5097 -1.32294,4.7937 0,3.3307 1.27625,4.8404 1.27624,1.5097 3.33069,1.5097 1.64978,0 2.75482,-1.0117 1.10504,-1.0116 1.40076,-3.1128 z" />
      <path
         inkscape:connector-curvature="0"
         id="path5577"
         d="m 545.67491,1182.2592 2.8949,0.3579 q -0.68482,2.537 -2.53693,3.9377 -1.85211,1.4008 -4.73144,1.4008 -3.62641,0 -5.75867,-2.2257 -2.1167,-2.2412 -2.1167,-6.2723 0,-4.1711 2.14783,-6.4746 2.14783,-2.3034 5.5719,-2.3034 3.31512,0 5.41626,2.2567 2.10113,2.2568 2.10113,6.3501 0,0.2491 -0.0156,0.7471 l -12.32666,0 q 0.15564,2.7237 1.54083,4.1712 1.38519,1.4474 3.4552,1.4474 1.54083,0 2.63031,-0.8093 1.08948,-0.8094 1.7276,-2.5836 z m -9.1983,-4.5292 9.22943,0 q -0.18677,-2.0855 -1.05835,-3.1283 -1.3385,-1.6187 -3.47076,-1.6187 -1.92994,0 -3.25287,1.2918 -1.30738,1.2919 -1.44745,3.4552 z" />
      <path
         inkscape:connector-curvature="0"
         id="path5579"
         d="m 552.10283,1187.582 0,-16.5289 2.52136,0 0,2.3502 q 1.82099,-2.7237 5.26062,-2.7237 1.49414,0 2.73926,0.5447 1.26068,0.5292 1.88324,1.4008 0.62256,0.8715 0.87158,2.07 0.15564,0.7782 0.15564,2.7237 l 0,10.1632 -2.80151,0 0,-10.0543 q 0,-1.712 -0.32685,-2.5525 -0.32684,-0.856 -1.16729,-1.354 -0.82489,-0.5137 -1.9455,-0.5137 -1.78986,0 -3.09723,1.1362 -1.29181,1.1362 -1.29181,4.3112 l 0,9.0271 -2.80151,0 z" />
      <path
         inkscape:connector-curvature="0"
         id="path5581"
         d="m 575.96239,1185.0762 0.40466,2.4747 q -1.18286,0.249 -2.1167,0.249 -1.52527,0 -2.36572,-0.4825 -0.84046,-0.4824 -1.18286,-1.2606 -0.34241,-0.7938 -0.34241,-3.3152 l 0,-9.5095 -2.05444,0 0,-2.179 2.05444,0 0,-4.0933 2.78595,-1.6809 0,5.7742 2.81708,0 0,2.179 -2.81708,0 0,9.6652 q 0,1.1984 0.14008,1.5408 0.15563,0.3424 0.48248,0.5447 0.34241,0.2024 0.96496,0.2024 0.46692,0 1.22956,-0.109 z" />
      <path
         inkscape:connector-curvature="0"
         id="path5583"
         d="m 586.85716,1180.2514 2.84821,-0.249 q 0.20233,1.712 0.93384,2.8171 0.74707,1.0894 2.30346,1.7743 1.5564,0.6692 3.50189,0.6692 1.7276,0 3.05054,-0.5136 1.32294,-0.5136 1.96106,-1.4008 0.65369,-0.9027 0.65369,-1.961 0,-1.0739 -0.62256,-1.8677 -0.62256,-0.8093 -2.05444,-1.3541 -0.91828,-0.3579 -4.0622,-1.105 -3.14392,-0.7626 -4.4046,-1.4319 -1.63422,-0.856 -2.44354,-2.1167 -0.79377,-1.2762 -0.79377,-2.8482 0,-1.7276 0.98053,-3.2217 0.98053,-1.5097 2.86377,-2.2879 1.88324,-0.7782 4.18671,-0.7782 2.53693,0 4.46686,0.8248 1.94549,0.8094 2.98828,2.3969 1.04279,1.5875 1.1206,3.5953 l -2.89489,0.2179 q -0.23346,-2.1634 -1.58753,-3.2685 -1.3385,-1.105 -3.96881,-1.105 -2.73926,0 -3.99994,1.0117 -1.24511,0.996 -1.24511,2.4124 0,1.2295 0.88714,2.0233 0.87158,0.7937 4.54468,1.6342 3.68866,0.8249 5.05829,1.4475 1.99219,0.9182 2.94159,2.3345 0.9494,1.4008 0.9494,3.2373 0,1.821 -1.04279,3.4397 -1.04278,1.6031 -3.00384,2.5058 -1.9455,0.8871 -4.38904,0.8871 -3.09723,0 -5.19836,-0.9027 -2.08558,-0.9027 -3.284,-2.7081 -1.18286,-1.821 -1.24512,-4.1089 z" />
      <path
         inkscape:connector-curvature="0"
         id="path5585"
         d="m 607.77513,1179.3176 q 0,-4.5914 2.55249,-6.8015 2.13226,-1.8365 5.19837,-1.8365 3.4085,0 5.5719,2.2412 2.16339,2.2256 2.16339,6.1633 0,3.1906 -0.96497,5.0272 -0.9494,1.821 -2.78595,2.8326 -1.82098,1.0117 -3.98437,1.0117 -3.47077,0 -5.6186,-2.2257 -2.13226,-2.2256 -2.13226,-6.4123 z m 2.87933,0 q 0,3.175 1.3852,4.7625 1.38519,1.572 3.48633,1.572 2.08557,0 3.47076,-1.5875 1.38519,-1.5875 1.38519,-4.8404 0,-3.0661 -1.40075,-4.6381 -1.3852,-1.5875 -3.4552,-1.5875 -2.10114,0 -3.48633,1.572 -1.3852,1.5719 -1.3852,4.747 z" />
      <path
         inkscape:connector-curvature="0"
         id="path5587"
         d="m 637.34666,1181.5276 2.75483,0.358 q -0.45136,2.8482 -2.31903,4.4669 -1.85212,1.6031 -4.56025,1.6031 -3.39294,0 -5.46295,-2.2101 -2.05444,-2.2257 -2.05444,-6.3657 0,-2.677 0.88714,-4.6847 0.88715,-2.0078 2.69257,-3.0039 1.82098,-1.0116 3.95325,-1.0116 2.69256,0 4.4046,1.3696 1.71204,1.3541 2.19452,3.8599 l -2.7237,0.4202 q -0.38909,-1.6654 -1.38519,-2.5058 -0.98053,-0.8405 -2.38128,-0.8405 -2.1167,0 -3.43964,1.5253 -1.32294,1.5097 -1.32294,4.7937 0,3.3307 1.27625,4.8404 1.27624,1.5097 3.33069,1.5097 1.64978,0 2.75482,-1.0117 1.10504,-1.0116 1.40075,-3.1128 z" />
      <path
         inkscape:connector-curvature="0"
         id="path5589"
         d="m 642.5139,1167.987 0,-3.2217 2.80151,0 0,3.2217 -2.80151,0 z m 0,19.595 0,-16.5289 2.80151,0 0,16.5289 -2.80151,0 z" />
      <path
         inkscape:connector-curvature="0"
         id="path5591"
         d="m 660.91051,1182.2592 2.89489,0.3579 q -0.68481,2.537 -2.53692,3.9377 -1.85211,1.4008 -4.73145,1.4008 -3.6264,0 -5.75866,-2.2257 -2.1167,-2.2412 -2.1167,-6.2723 0,-4.1711 2.14782,-6.4746 2.14783,-2.3034 5.5719,-2.3034 3.31513,0 5.41626,2.2567 2.10114,2.2568 2.10114,6.3501 0,0.2491 -0.0156,0.7471 l -12.32666,0 q 0.15564,2.7237 1.54084,4.1712 1.38519,1.4474 3.4552,1.4474 1.54083,0 2.63031,-0.8093 1.08947,-0.8094 1.7276,-2.5836 z m -9.19831,-4.5292 9.22944,0 q -0.18677,-2.0855 -1.05835,-3.1283 -1.33851,-1.6187 -3.47077,-1.6187 -1.92993,0 -3.25287,1.2918 -1.30737,1.2919 -1.44745,3.4552 z" />
      <path
         inkscape:connector-curvature="0"
         id="path5593"
         d="m 673.45506,1185.0762 0.40467,2.4747 q -1.18287,0.249 -2.1167,0.249 -1.52527,0 -2.36573,-0.4825 -0.84045,-0.4824 -1.18286,-1.2606 -0.3424,-0.7938 -0.3424,-3.3152 l 0,-9.5095 -2.05445,0 0,-2.179 2.05445,0 0,-4.0933 2.78595,-1.6809 0,5.7742 2.81707,0 0,2.179 -2.81707,0 0,9.6652 q 0,1.1984 0.14007,1.5408 0.15564,0.3424 0.48248,0.5447 0.34241,0.2024 0.96497,0.2024 0.46692,0 1.22955,-0.109 z" />
      <path
         inkscape:connector-curvature="0"
         id="path5595"
         d="m 676.19432,1167.987 0,-3.2217 2.80151,0 0,3.2217 -2.80151,0 z m 0,19.595 0,-16.5289 2.80151,0 0,16.5289 -2.80151,0 z" />
      <path
         inkscape:connector-curvature="0"
         id="path5597"
         d="m 694.59093,1182.2592 2.89489,0.3579 q -0.68481,2.537 -2.53692,3.9377 -1.85211,1.4008 -4.73145,1.4008 -3.6264,0 -5.75866,-2.2257 -2.1167,-2.2412 -2.1167,-6.2723 0,-4.1711 2.14782,-6.4746 2.14783,-2.3034 5.5719,-2.3034 3.31513,0 5.41626,2.2567 2.10114,2.2568 2.10114,6.3501 0,0.2491 -0.0156,0.7471 l -12.32666,0 q 0.15564,2.7237 1.54084,4.1712 1.38519,1.4474 3.4552,1.4474 1.54083,0 2.63031,-0.8093 1.08947,-0.8094 1.7276,-2.5836 z m -9.19831,-4.5292 9.22944,0 q -0.18677,-2.0855 -1.05835,-3.1283 -1.33851,-1.6187 -3.47077,-1.6187 -1.92993,0 -3.25287,1.2918 -1.30737,1.2919 -1.44745,3.4552 z" />
      <path
         inkscape:connector-curvature="0"
         id="path5599"
         d="m 699.89824,1182.6483 2.77038,-0.4358 q 0.23346,1.6653 1.29181,2.5525 1.07392,0.8871 2.98829,0.8871 1.92993,0 2.86376,-0.7782 0.93384,-0.7938 0.93384,-1.8521 0,-0.9494 -0.82489,-1.4942 -0.57586,-0.3735 -2.86377,-0.9494 -3.08166,-0.7782 -4.28009,-1.3385 -1.18286,-0.5758 -1.80542,-1.5719 -0.60699,-1.0117 -0.60699,-2.2257 0,-1.105 0.49804,-2.0388 0.51362,-0.9494 1.3852,-1.572 0.65368,-0.4825 1.77429,-0.8093 1.13617,-0.3424 2.42798,-0.3424 1.94549,0 3.40851,0.5603 1.47857,0.5603 2.17895,1.5252 0.70038,0.9494 0.96497,2.5525 l -2.73926,0.3736 q -0.18677,-1.2763 -1.08948,-1.9922 -0.88714,-0.716 -2.52136,-0.716 -1.92993,0 -2.75482,0.6382 -0.82489,0.6381 -0.82489,1.4941 0,0.5447 0.34241,0.9805 0.3424,0.4514 1.07391,0.7471 0.42023,0.1556 2.47467,0.7159 2.97272,0.7938 4.14001,1.3074 1.18287,0.4981 1.85212,1.463 0.66925,0.965 0.66925,2.3969 0,1.4007 -0.82489,2.6458 -0.80933,1.2296 -2.35016,1.9144 -1.54084,0.6693 -3.48633,0.6693 -3.22174,0 -4.91821,-1.3385 -1.68091,-1.3385 -2.14783,-3.9688 z" />
    </g>
    <g
       transform="matrix(0.48315625,0,0,0.48315625,30.510494,-541.3328)"
       id="text4144"
       style="font-style:normal;font-variant:normal;font-weight:normal;font-stretch:normal;font-size:31.875px;line-height:125%;font-family:Arial;-inkscape-font-specification:'Arial, Normal';text-align:start;letter-spacing:0px;word-spacing:0px;writing-mode:lr-tb;text-anchor:start;fill:#000000;fill-opacity:1;stroke:none;stroke-width:1px;stroke-linecap:butt;stroke-linejoin:miter;stroke-opacity:1">
      <path
         inkscape:connector-curvature="0"
         id="path5602"
         d="m 127.66576,1153.0706 0,-22.8168 3.01941,0 0,22.8168 -3.01941,0 z" />
      <path
         inkscape:connector-curvature="0"
         id="path5604"
         d="m 135.63451,1153.0706 0,-16.529 2.52137,0 0,2.3502 q 1.82098,-2.7237 5.26062,-2.7237 1.49414,0 2.73925,0.5447 1.26069,0.5292 1.88324,1.4008 0.62256,0.8716 0.87159,2.07 0.15564,0.7782 0.15564,2.7237 l 0,10.1633 -2.80152,0 0,-10.0544 q 0,-1.712 -0.32684,-2.5525 -0.32684,-0.856 -1.1673,-1.354 -0.82489,-0.5136 -1.94549,-0.5136 -1.78986,0 -3.09723,1.1361 -1.29181,1.1362 -1.29181,4.3113 l 0,9.0271 -2.80152,0 z" />
      <path
         inkscape:connector-curvature="0"
         id="path5606"
         d="m 159.49407,1150.5648 0.40467,2.4746 q -1.18287,0.2491 -2.1167,0.2491 -1.52527,0 -2.36573,-0.4825 -0.84045,-0.4825 -1.18286,-1.2607 -0.34241,-0.7938 -0.34241,-3.3151 l 0,-9.5096 -2.05444,0 0,-2.179 2.05444,0 0,-4.0933 2.78595,-1.6809 0,5.7742 2.81708,0 0,2.179 -2.81708,0 0,9.6652 q 0,1.1984 0.14008,1.5408 0.15564,0.3424 0.48248,0.5448 0.34241,0.2023 0.96497,0.2023 0.46692,0 1.22955,-0.1089 z" />
      <path
         inkscape:connector-curvature="0"
         id="path5608"
         d="m 173.53277,1147.7477 2.8949,0.358 q -0.68482,2.5369 -2.53693,3.9376 -1.85211,1.4008 -4.73145,1.4008 -3.6264,0 -5.75866,-2.2257 -2.1167,-2.2412 -2.1167,-6.2722 0,-4.1712 2.14783,-6.4746 2.14782,-2.3035 5.57189,-2.3035 3.31513,0 5.41626,2.2568 2.10114,2.2567 2.10114,6.3501 0,0.249 -0.0156,0.747 l -12.32666,0 q 0.15564,2.7237 1.54083,4.1712 1.38519,1.4474 3.4552,1.4474 1.54083,0 2.63031,-0.8093 1.08948,-0.8093 1.7276,-2.5836 z m -9.1983,-4.5291 9.22943,0 q -0.18677,-2.0856 -1.05835,-3.1284 -1.3385,-1.6186 -3.47077,-1.6186 -1.92993,0 -3.25287,1.2918 -1.30737,1.2918 -1.44744,3.4552 z" />
      <path
         inkscape:connector-curvature="0"
         id="path5610"
         d="m 179.92956,1153.0706 0,-16.529 2.52136,0 0,2.5058 q 0.96497,-1.7587 1.77429,-2.319 0.82489,-0.5603 1.80542,-0.5603 1.41632,0 2.87934,0.9027 l -0.96497,2.5992 q -1.02722,-0.607 -2.05444,-0.607 -0.91828,0 -1.64978,0.5603 -0.73151,0.5447 -1.04279,1.5253 -0.46692,1.4941 -0.46692,3.2684 l 0,8.6536 -2.80151,0 z" />
      <path
         inkscape:connector-curvature="0"
         id="path5612"
         d="m 190.60644,1153.0706 0,-16.529 2.52136,0 0,2.3502 q 1.82098,-2.7237 5.26062,-2.7237 1.49414,0 2.73926,0.5447 1.26068,0.5292 1.88324,1.4008 0.62256,0.8716 0.87158,2.07 0.15564,0.7782 0.15564,2.7237 l 0,10.1633 -2.80151,0 0,-10.0544 q 0,-1.712 -0.32685,-2.5525 -0.32684,-0.856 -1.16729,-1.354 -0.8249,-0.5136 -1.9455,-0.5136 -1.78986,0 -3.09723,1.1361 -1.29181,1.1362 -1.29181,4.3113 l 0,9.0271 -2.80151,0 z" />
      <path
         inkscape:connector-curvature="0"
         id="path5614"
         d="m 219.13519,1151.0317 q -1.5564,1.3229 -3.00385,1.8677 -1.43188,0.5447 -3.08167,0.5447 -2.72369,0 -4.1867,-1.3229 -1.46301,-1.3385 -1.46301,-3.4086 0,-1.2139 0.54473,-2.21 0.56031,-1.0117 1.44745,-1.6187 0.90271,-0.607 2.02332,-0.9183 0.82489,-0.2179 2.49023,-0.4202 3.39295,-0.4047 4.99604,-0.965 0.0156,-0.5758 0.0156,-0.7315 0,-1.712 -0.79376,-2.4124 -1.07392,-0.9494 -3.19062,-0.9494 -1.97662,0 -2.92602,0.7004 -0.93384,0.6848 -1.38519,2.4435 l -2.73926,-0.3735 q 0.37353,-1.7587 1.22955,-2.8326 0.85602,-1.0895 2.47467,-1.6654 1.61865,-0.5914 3.75092,-0.5914 2.1167,0 3.43963,0.498 1.32294,0.4981 1.9455,1.2607 0.62256,0.7471 0.87158,1.8988 0.14008,0.716 0.14008,2.5836 l 0,3.7354 q 0,3.9065 0.1712,4.9493 0.18677,1.0273 0.71594,1.9767 l -2.92602,0 q -0.43579,-0.8716 -0.5603,-2.0389 z m -0.23346,-6.2567 q -1.52527,0.6225 -4.57581,1.0583 -1.7276,0.249 -2.44354,0.5603 -0.71594,0.3113 -1.10504,0.9183 -0.3891,0.5914 -0.3891,1.3229 0,1.1206 0.84045,1.8677 0.85602,0.7471 2.49024,0.7471 1.61865,0 2.87933,-0.7004 1.26068,-0.7159 1.85211,-1.9455 0.45136,-0.9494 0.45136,-2.8015 l 0,-1.0272 z" />
      <path
         inkscape:connector-curvature="0"
         id="path5616"
         d="m 232.20892,1150.5648 0.40466,2.4746 q -1.18286,0.2491 -2.1167,0.2491 -1.52527,0 -2.36572,-0.4825 -0.84046,-0.4825 -1.18286,-1.2607 -0.34241,-0.7938 -0.34241,-3.3151 l 0,-9.5096 -2.05444,0 0,-2.179 2.05444,0 0,-4.0933 2.78595,-1.6809 0,5.7742 2.81708,0 0,2.179 -2.81708,0 0,9.6652 q 0,1.1984 0.14007,1.5408 0.15564,0.3424 0.48249,0.5448 0.3424,0.2023 0.96496,0.2023 0.46692,0 1.22956,-0.1089 z" />
      <path
         inkscape:connector-curvature="0"
         id="path5618"
         d="m 234.94817,1133.4755 0,-3.2217 2.80152,0 0,3.2217 -2.80152,0 z m 0,19.5951 0,-16.529 2.80152,0 0,16.529 -2.80152,0 z" />
      <path
         inkscape:connector-curvature="0"
         id="path5620"
         d="m 240.98699,1144.8061 q 0,-4.5914 2.55249,-6.8015 2.13227,-1.8365 5.19837,-1.8365 3.4085,0 5.5719,2.2412 2.16339,2.2256 2.16339,6.1633 0,3.1906 -0.96497,5.0272 -0.9494,1.821 -2.78595,2.8326 -1.82098,1.0117 -3.98437,1.0117 -3.47077,0 -5.61859,-2.2257 -2.13227,-2.2256 -2.13227,-6.4123 z m 2.87934,0 q 0,3.175 1.38519,4.7626 1.38519,1.5719 3.48633,1.5719 2.08557,0 3.47076,-1.5875 1.38519,-1.5875 1.38519,-4.8404 0,-3.0661 -1.40075,-4.6381 -1.3852,-1.5875 -3.4552,-1.5875 -2.10114,0 -3.48633,1.572 -1.38519,1.5719 -1.38519,4.747 z" />
      <path
         inkscape:connector-curvature="0"
         id="path5622"
         d="m 259.7727,1153.0706 0,-16.529 2.52136,0 0,2.3502 q 1.82098,-2.7237 5.26062,-2.7237 1.49414,0 2.73926,0.5447 1.26068,0.5292 1.88324,1.4008 0.62256,0.8716 0.87158,2.07 0.15564,0.7782 0.15564,2.7237 l 0,10.1633 -2.80151,0 0,-10.0544 q 0,-1.712 -0.32685,-2.5525 -0.32684,-0.856 -1.1673,-1.354 -0.82489,-0.5136 -1.94549,-0.5136 -1.78986,0 -3.09723,1.1361 -1.29181,1.1362 -1.29181,4.3113 l 0,9.0271 -2.80151,0 z" />
      <path
         inkscape:connector-curvature="0"
         id="path5624"
         d="m 288.30145,1151.0317 q -1.5564,1.3229 -3.00385,1.8677 -1.43188,0.5447 -3.08167,0.5447 -2.72369,0 -4.1867,-1.3229 -1.46301,-1.3385 -1.46301,-3.4086 0,-1.2139 0.54473,-2.21 0.56031,-1.0117 1.44745,-1.6187 0.90271,-0.607 2.02332,-0.9183 0.82489,-0.2179 2.49023,-0.4202 3.39295,-0.4047 4.99604,-0.965 0.0156,-0.5758 0.0156,-0.7315 0,-1.712 -0.79376,-2.4124 -1.07392,-0.9494 -3.19062,-0.9494 -1.97662,0 -2.92602,0.7004 -0.93384,0.6848 -1.38519,2.4435 l -2.73926,-0.3735 q 0.37353,-1.7587 1.22955,-2.8326 0.85602,-1.0895 2.47467,-1.6654 1.61865,-0.5914 3.75092,-0.5914 2.1167,0 3.43963,0.498 1.32294,0.4981 1.9455,1.2607 0.62256,0.7471 0.87158,1.8988 0.14008,0.716 0.14008,2.5836 l 0,3.7354 q 0,3.9065 0.1712,4.9493 0.18677,1.0273 0.71594,1.9767 l -2.92602,0 q -0.43579,-0.8716 -0.5603,-2.0389 z m -0.23346,-6.2567 q -1.52527,0.6225 -4.57581,1.0583 -1.7276,0.249 -2.44354,0.5603 -0.71594,0.3113 -1.10504,0.9183 -0.3891,0.5914 -0.3891,1.3229 0,1.1206 0.84045,1.8677 0.85602,0.7471 2.49024,0.7471 1.61865,0 2.87933,-0.7004 1.26068,-0.7159 1.85211,-1.9455 0.45136,-0.9494 0.45136,-2.8015 l 0,-1.0272 z" />
      <path
         inkscape:connector-curvature="0"
         id="path5626"
         d="m 295.19628,1153.0706 0,-22.8168 2.80152,0 0,22.8168 -2.80152,0 z" />
      <path
         inkscape:connector-curvature="0"
         id="path5628"
         d="m 311.70965,1153.0706 0,-22.8168 15.39276,0 0,2.6926 -12.37335,0 0,7.066 10.70801,0 0,2.6926 -10.70801,0 0,10.3656 -3.01941,0 z" />
      <path
         inkscape:connector-curvature="0"
         id="path5630"
         d="m 341.99712,1147.7477 2.8949,0.358 q -0.68481,2.5369 -2.53693,3.9376 -1.85211,1.4008 -4.73144,1.4008 -3.6264,0 -5.75867,-2.2257 -2.1167,-2.2412 -2.1167,-6.2722 0,-4.1712 2.14783,-6.4746 2.14783,-2.3035 5.5719,-2.3035 3.31512,0 5.41626,2.2568 2.10113,2.2567 2.10113,6.3501 0,0.249 -0.0156,0.747 l -12.32666,0 q 0.15564,2.7237 1.54083,4.1712 1.3852,1.4474 3.4552,1.4474 1.54084,0 2.63031,-0.8093 1.08948,-0.8093 1.7276,-2.5836 z m -9.1983,-4.5291 9.22943,0 q -0.18677,-2.0856 -1.05835,-3.1284 -1.3385,-1.6186 -3.47076,-1.6186 -1.92993,0 -3.25287,1.2918 -1.30737,1.2918 -1.44745,3.4552 z" />
      <path
         inkscape:connector-curvature="0"
         id="path5632"
         d="m 359.14861,1153.0706 0,-2.0856 q -1.57196,2.4591 -4.62249,2.4591 -1.97663,0 -3.64197,-1.0895 -1.64978,-1.0895 -2.56806,-3.035 -0.90271,-1.961 -0.90271,-4.4979 0,-2.4747 0.82489,-4.4825 0.82489,-2.0233 2.47467,-3.0972 1.64978,-1.0739 3.68866,-1.0739 1.49414,0 2.66144,0.6381 1.1673,0.6226 1.89881,1.6342 l 0,-8.1866 2.78595,0 0,22.8168 -2.59919,0 z m -8.85589,-8.2489 q 0,3.175 1.3385,4.747 1.3385,1.5719 3.15948,1.5719 1.83655,0 3.1128,-1.4941 1.2918,-1.5097 1.2918,-4.5914 0,-3.3929 -1.30737,-4.9805 -1.30737,-1.5875 -3.22174,-1.5875 -1.86767,0 -3.12836,1.5253 -1.24511,1.5253 -1.24511,4.8093 z" />
      <path
         inkscape:connector-curvature="0"
         id="path5634"
         d="m 377.48296,1147.7477 2.8949,0.358 q -0.68481,2.5369 -2.53693,3.9376 -1.85211,1.4008 -4.73144,1.4008 -3.6264,0 -5.75867,-2.2257 -2.1167,-2.2412 -2.1167,-6.2722 0,-4.1712 2.14783,-6.4746 2.14783,-2.3035 5.5719,-2.3035 3.31512,0 5.41626,2.2568 2.10113,2.2567 2.10113,6.3501 0,0.249 -0.0156,0.747 l -12.32666,0 q 0.15564,2.7237 1.54083,4.1712 1.3852,1.4474 3.4552,1.4474 1.54084,0 2.63031,-0.8093 1.08948,-0.8093 1.7276,-2.5836 z m -9.1983,-4.5291 9.22943,0 q -0.18677,-2.0856 -1.05835,-3.1284 -1.3385,-1.6186 -3.47076,-1.6186 -1.92993,0 -3.25287,1.2918 -1.30737,1.2918 -1.44745,3.4552 z" />
      <path
         inkscape:connector-curvature="0"
         id="path5636"
         d="m 383.87975,1153.0706 0,-16.529 2.52137,0 0,2.5058 q 0.96496,-1.7587 1.77429,-2.319 0.82489,-0.5603 1.80542,-0.5603 1.41632,0 2.87933,0.9027 l -0.96496,2.5992 q -1.02723,-0.607 -2.05445,-0.607 -0.91827,0 -1.64978,0.5603 -0.7315,0.5447 -1.04278,1.5253 -0.46692,1.4941 -0.46692,3.2684 l 0,8.6536 -2.80152,0 z" />
      <path
         inkscape:connector-curvature="0"
         id="path5638"
         d="m 405.34246,1151.0317 q -1.5564,1.3229 -3.00384,1.8677 -1.43189,0.5447 -3.08167,0.5447 -2.72369,0 -4.18671,-1.3229 -1.46301,-1.3385 -1.46301,-3.4086 0,-1.2139 0.54474,-2.21 0.5603,-1.0117 1.44745,-1.6187 0.90271,-0.607 2.02331,-0.9183 0.82489,-0.2179 2.49024,-0.4202 3.39294,-0.4047 4.99603,-0.965 0.0156,-0.5758 0.0156,-0.7315 0,-1.712 -0.79377,-2.4124 -1.07391,-0.9494 -3.19061,-0.9494 -1.97662,0 -2.92603,0.7004 -0.93383,0.6848 -1.38519,2.4435 l -2.73926,-0.3735 q 0.37354,-1.7587 1.22956,-2.8326 0.85602,-1.0895 2.47467,-1.6654 1.61865,-0.5914 3.75091,-0.5914 2.1167,0 3.43964,0.498 1.32294,0.4981 1.9455,1.2607 0.62255,0.7471 0.87158,1.8988 0.14007,0.716 0.14007,2.5836 l 0,3.7354 q 0,3.9065 0.17121,4.9493 0.18676,1.0273 0.71594,1.9767 l -2.92603,0 q -0.43579,-0.8716 -0.5603,-2.0389 z m -0.23346,-6.2567 q -1.52527,0.6225 -4.5758,1.0583 -1.7276,0.249 -2.44355,0.5603 -0.71594,0.3113 -1.10504,0.9183 -0.3891,0.5914 -0.3891,1.3229 0,1.1206 0.84046,1.8677 0.85601,0.7471 2.49023,0.7471 1.61865,0 2.87933,-0.7004 1.26069,-0.7159 1.85212,-1.9455 0.45135,-0.9494 0.45135,-2.8015 l 0,-1.0272 z" />
      <path
         inkscape:connector-curvature="0"
         id="path5640"
         d="m 418.41619,1150.5648 0.40466,2.4746 q -1.18286,0.2491 -2.1167,0.2491 -1.52526,0 -2.36572,-0.4825 -0.84045,-0.4825 -1.18286,-1.2607 -0.34241,-0.7938 -0.34241,-3.3151 l 0,-9.5096 -2.05444,0 0,-2.179 2.05444,0 0,-4.0933 2.78595,-1.6809 0,5.7742 2.81708,0 0,2.179 -2.81708,0 0,9.6652 q 0,1.1984 0.14008,1.5408 0.15564,0.3424 0.48248,0.5448 0.34241,0.2023 0.96497,0.2023 0.46692,0 1.22955,-0.1089 z" />
      <path
         inkscape:connector-curvature="0"
         id="path5642"
         d="m 421.15545,1133.4755 0,-3.2217 2.80151,0 0,3.2217 -2.80151,0 z m 0,19.5951 0,-16.529 2.80151,0 0,16.529 -2.80151,0 z" />
      <path
         inkscape:connector-curvature="0"
         id="path5644"
         d="m 427.19427,1144.8061 q 0,-4.5914 2.55249,-6.8015 2.13226,-1.8365 5.19836,-1.8365 3.40851,0 5.5719,2.2412 2.16339,2.2256 2.16339,6.1633 0,3.1906 -0.96496,5.0272 -0.94941,1.821 -2.78595,2.8326 -1.82099,1.0117 -3.98438,1.0117 -3.47076,0 -5.61859,-2.2257 -2.13226,-2.2256 -2.13226,-6.4123 z m 2.87933,0 q 0,3.175 1.38519,4.7626 1.3852,1.5719 3.48633,1.5719 2.08557,0 3.47077,-1.5875 1.38519,-1.5875 1.38519,-4.8404 0,-3.0661 -1.40076,-4.6381 -1.38519,-1.5875 -3.4552,-1.5875 -2.10113,0 -3.48633,1.572 -1.38519,1.5719 -1.38519,4.747 z" />
      <path
         inkscape:connector-curvature="0"
         id="path5646"
         d="m 445.97997,1153.0706 0,-16.529 2.52137,0 0,2.3502 q 1.82098,-2.7237 5.26062,-2.7237 1.49414,0 2.73925,0.5447 1.26068,0.5292 1.88324,1.4008 0.62256,0.8716 0.87158,2.07 0.15564,0.7782 0.15564,2.7237 l 0,10.1633 -2.80151,0 0,-10.0544 q 0,-1.712 -0.32684,-2.5525 -0.32685,-0.856 -1.1673,-1.354 -0.82489,-0.5136 -1.9455,-0.5136 -1.78985,0 -3.09722,1.1361 -1.29181,1.1362 -1.29181,4.3113 l 0,9.0271 -2.80152,0 z" />
    </g>
  </g>
  <text
     xml:space="preserve"
     style="font-style:normal;font-variant:normal;font-weight:bold;font-stretch:normal;font-size:5px;line-height:125%;font-family:sans-serif;-inkscape-font-specification:'sans-serif, Bold';text-align:start;letter-spacing:0px;word-spacing:0px;writing-mode:lr-tb;text-anchor:start;fill:#ee3226;fill-opacity:0.81960784;stroke:none;stroke-width:1px;stroke-linecap:butt;stroke-linejoin:miter;stroke-opacity:1"
     x="-187.34859"
     y="161.22868"
     id="text4476"
     sodipodi:linespacing="125%"><tspan
       sodipodi:role="line"
       id="tspan4478"
       x="-187.34859"
       y="161.22868">www.ifrc.org  <tspan
   style="font-style:normal;font-variant:normal;font-weight:bold;font-stretch:normal;font-size:5px;line-height:125%;font-family:sans-serif;-inkscape-font-specification:'sans-serif, Bold';text-align:start;writing-mode:lr-tb;text-anchor:start;fill:#916f6f"
   id="tspan4482">Saving lives, changing minds.</tspan></tspan></text>
  <text
     sodipodi:linespacing="125%"
     id="text4765"
     y="14.442966"
     x="5.8821025"
     style="font-style:normal;font-variant:normal;font-weight:400;font-size:5.65601921px;line-height:125%;font-family:Arial;text-align:start;letter-spacing:0px;word-spacing:0px;text-anchor:start;fill:#000000;fill-opacity:1;stroke:none"
     xml:space="preserve"><tspan
       id="tspan4767"
       y="14.442966"
       x="5.8821025"
       sodipodi:role="line"><tspan
         id="tspan4769"
         style="font-style:normal;font-variant:normal;font-weight:400;font-size:5.65601921px;font-family:Arial;fill:#000000"
         dy="0"
         dx="0">INTERNATIONAL</tspan></tspan></text>
  <text
     sodipodi:linespacing="125%"
     id="text4771"
     y="51.663822"
     x="10.470226"
     style="font-style:normal;font-variant:normal;font-weight:400;font-size:5.65601921px;line-height:125%;font-family:Arial;text-align:start;letter-spacing:0px;word-spacing:0px;text-anchor:start;fill:#000000;fill-opacity:1;stroke:none"
     xml:space="preserve"><tspan
       id="tspan4773"
       y="51.663822"
       x="10.470226"
       sodipodi:role="line"><tspan
         id="tspan4775"
         style="font-style:normal;font-variant:normal;font-weight:400;font-size:5.65601921px;font-family:Arial;fill:#000000"
         dy="0"
         dx="0">FEDERATION</tspan></tspan></text>
  <path
     inkscape:connector-curvature="0"
     id="path4777"
     d="m 10.470225,31.410894 17.538074,0 m -8.769063,-8.76901 0,17.538035"
     style="fill:none;stroke:#ed1c24;stroke-width:5.32114363px;stroke-linecap:butt;stroke-linejoin:miter;stroke-miterlimit:4;stroke-dasharray:none;stroke-opacity:1" />
  <path
     inkscape:connector-curvature="0"
     id="path4779"
     d="m 49.292804,31.410894 c 0,4.995362 -4.045182,9.040504 -9.040467,9.040504 -4.995362,0 -9.040503,-4.045142 -9.040503,-9.040504 0,-4.995362 4.045141,-9.040503 9.040503,-9.040503 4.995285,0 9.040467,4.045141 9.040467,9.040503 z"
     style="fill:#ed1c24;fill-opacity:1;fill-rule:nonzero;stroke:none" />
  <path
     inkscape:connector-curvature="0"
     id="path4781"
     d="m 50.351611,31.410894 c 0,4.099449 -3.339314,7.438725 -7.438801,7.438725 -4.126512,0 -7.465788,-3.339276 -7.465788,-7.438725 0,-4.126589 3.339276,-7.438761 7.465788,-7.438761 4.099487,0 7.438801,3.312172 7.438801,7.438761 z"
     style="fill:#ffffff;fill-opacity:1;fill-rule:nonzero;stroke:none" />
  <path
     inkscape:connector-curvature="0"
     id="path4783"
     d="m 9.3571265,19.058231 38.3067435,0 c 1.493194,0 2.714894,1.194547 2.714894,2.687739 l 0,19.302708 c 0,1.493155 -1.2217,2.714855 -2.714894,2.714855 l -38.3067435,0 c -1.493169,0 -2.714868,-1.2217 -2.714868,-2.714855 l 0,-19.302708 c 0,-1.493192 1.221699,-2.687739 2.714868,-2.687739 z"
     style="fill:none;stroke:#ed1c24;stroke-width:0.7330147px;stroke-linecap:round;stroke-linejoin:round;stroke-miterlimit:4;stroke-dasharray:none;stroke-opacity:1" />
</svg>
