<?xml version="1.0" encoding="UTF-8" standalone="no"?>
<svg
   xmlns:dc="http://purl.org/dc/elements/1.1/"
   xmlns:cc="http://creativecommons.org/ns#"
   xmlns:rdf="http://www.w3.org/1999/02/22-rdf-syntax-ns#"
   xmlns:svg="http://www.w3.org/2000/svg"
   xmlns="http://www.w3.org/2000/svg"
   xml:space="preserve"
   style="enable-background:new -35 20.7 70.1 100;"
   viewBox="-35 20.7 70.1 100"
   y="0px"
   x="0px"
   id="Layer_1"
   version="1.1"><metadata
     id="metadata17"><rdf:RDF><cc:Work
         rdf:about=""><dc:format>image/svg+xml</dc:format><dc:type
           rdf:resource="http://purl.org/dc/dcmitype/StillImage" /><dc:title></dc:title></cc:Work></rdf:RDF></metadata><defs
     id="defs15" /><style
     id="style3"
     type="text/css">
	.st0{fill:#EE2A24;}
</style><path
     id="path5"
     d="M14.6,84.1c0,0,9.6,9.6,9.6,9.6c3,3.1,2.3,8.5-0.6,11.4L10.2,119c-5.1,5.1-12-2-7-7l8.5-8.5l-8.3-8.2L14.6,84.1  L14.6,84.1z"
     class="st0" /><path
     id="path7"
     d="M-15.2,84.1L-15.2,84.1c0,0-9.5,9.6-9.5,9.6c-3.1,3.1-2.3,8.5,0.6,11.4l13.4,13.9c5.1,5.1,12-2,7-7l-8.4-8.5  l8.2-8.2L-15.2,84.1"
     class="st0" /><path
     id="path9"
     d="M0,48.5c7.7,0,13.9-6.2,13.9-13.9c0-7.6-6.2-13.8-13.9-13.8c-7.7,0-13.9,6.2-13.9,13.8  C-13.8,42.3-7.6,48.5,0,48.5z"
     class="st0" /><path
     id="path11"
     d="M15.1,78.5l0.2-9.5l11.5,10.8c0.9,0.9,2.1,1.3,3.4,1.3c1.3,0,2.6-0.5,3.6-1.6c1.9-2,1.7-5.1-0.2-6.9  c0,0-13.2-14.4-15.1-16c-3.5-3.1-8.7-4.9-17-4.9h-2.6c-8.4,0-13.5,1.8-17,4.9c-1.9,1.7-15.1,16-15.1,16c-2,1.8-2.1,5-0.2,6.9  c1,1,2.3,1.6,3.6,1.6c1.2,0,2.4-0.4,3.4-1.3l11.5-10.8l0.2,9.5H15.1z"
     class="st0" /></svg>