<?xml version="1.0" encoding="UTF-8" standalone="no"?>
<svg
   xmlns:dc="http://purl.org/dc/elements/1.1/"
   xmlns:cc="http://creativecommons.org/ns#"
   xmlns:rdf="http://www.w3.org/1999/02/22-rdf-syntax-ns#"
   xmlns:svg="http://www.w3.org/2000/svg"
   xmlns="http://www.w3.org/2000/svg"
   height="150"
   width="150"
   xml:space="preserve"
   viewBox="-28 20.7 150 150"
   y="0px"
   x="0px"
   id="Layer_1"
   version="1.1"><metadata
     id="metadata15"><rdf:RDF><cc:Work
         rdf:about=""><dc:format>image/svg+xml</dc:format><dc:type
           rdf:resource="http://purl.org/dc/dcmitype/StillImage" /><dc:title></dc:title></cc:Work></rdf:RDF></metadata><defs
     id="defs13" /><style
     id="style3"
     type="text/css">
	.st0{fill:#EE2A24;}
</style><g
     transform="matrix(0.92459139,0,0,0.92459139,3.5442047,7.2166076)"
     id="g4369"><ellipse
       cx="47"
       cy="95.699997"
       id="circle4"
       style="fill:none;fill-opacity:0.2;stroke:#1e0b4b;stroke-width:22;stroke-miterlimit:4;stroke-dasharray:none;stroke-opacity:1"
       rx="64.731087"
       ry="64.731079" /><path
       style="fill:#ffffff;fill-opacity:1;fill-rule:nonzero;stroke:none"
       d="m 44.653374,24.722787 c -0.03768,0.0012 -0.06152,0.006 -0.06991,0.0091 -0.146748,0.05634 -0.218136,0.774294 -0.34044,3.465204 -0.0498,1.096704 -0.154752,3.044503 -0.234054,4.328455 -0.0793,1.283946 -0.169716,2.881584 -0.200616,3.550308 -0.0309,0.66873 -0.08305,1.552986 -0.115512,1.96665 -0.0477,0.608292 -0.02964,0.764508 0.08511,0.808548 0.114714,0.04404 3.005898,0.274134 4.085292,0.325248 0.170436,0.0081 0.299766,-0.0549 0.364758,-0.176304 0.05544,-0.103476 0.104718,-0.574014 0.109428,-1.045638 0.0048,-0.471624 0.0594,-1.535634 0.121584,-2.364846 l 0.11247,-1.507662 1.799466,0.03648 c 2.063473,0.04194 2.630731,-0.04122 3.662785,-0.531942 1.445772,-0.68748 2.262486,-2.179386 2.267574,-4.143037 0.003,-1.31364 -0.449496,-2.501094 -1.206744,-3.161238 -0.936084,-0.816054 -2.110596,-1.142472 -4.48044,-1.243218 -0.802471,-0.03408 -2.460313,-0.129366 -3.684055,-0.20973 -1.070772,-0.07032 -2.013024,-0.113922 -2.276696,-0.106378 z m -6.65682,0.653526 c -0.1752,3.48e-4 -0.800652,0.08482 -1.389126,0.185418 -0.588474,0.10059 -1.384465,0.21135 -1.769077,0.249252 -1.054776,0.103932 -1.055418,0.104856 -0.869334,1.322244 0.08533,0.558258 0.247818,1.649922 0.358674,2.425638 0.110862,0.775723 0.283584,1.979419 0.38604,2.674897 0.102456,0.695466 0.277746,1.899174 0.38907,2.674884 0.11133,0.775722 0.285132,1.957536 0.386041,2.62626 0.100896,0.668724 0.213312,1.456596 0.249252,1.750836 0.03594,0.294234 0.08563,0.56781 0.109422,0.607932 0.07129,0.12024 0.692778,0.08451 1.927134,-0.11247 0.641976,-0.10245 1.432446,-0.2169 1.756926,-0.252294 0.324468,-0.03534 0.650256,-0.100674 0.723426,-0.145896 0.145008,-0.08962 0.09892,-0.581958 -0.30396,-3.307146 -0.106776,-0.722214 -0.275808,-1.882146 -0.376914,-2.577612 -0.1011,-0.695478 -0.276354,-1.899174 -0.389076,-2.674896 -0.112722,-0.775717 -0.287796,-1.979419 -0.389076,-2.674891 -0.10128,-0.695472 -0.212988,-1.505232 -0.249252,-1.799466 -0.102864,-0.834618 -0.181212,-0.97344 -0.55017,-0.97269 z m 24.660661,1.343526 c -0.03906,-5.7e-4 -0.0633,0.0048 -0.07599,0.01518 -0.07265,0.06028 -0.291828,0.601476 -0.486342,1.200666 -0.19452,0.59919 -0.697758,2.138694 -1.118592,3.422647 -2.243052,6.84345 -2.737338,8.420514 -2.708322,8.614356 0.02742,0.18333 0.252816,0.284628 1.63533,0.729522 0.882714,0.284046 1.780014,0.582792 1.994004,0.66264 0.493824,0.184248 0.489486,0.184722 0.620094,0.02736 0.06034,-0.07268 0.441606,-1.143678 0.845016,-2.380044 0.40341,-1.236372 0.761748,-2.266644 0.799428,-2.28885 0.03768,-0.0222 0.748362,0.177882 1.577581,0.44682 1.484142,0.481356 1.52739,0.491376 2.772156,0.49851 1.160106,0.0067 1.308654,-0.01512 1.799472,-0.24318 0.857772,-0.398574 1.597368,-1.146024 2.042646,-2.066958 0.488124,-1.00953 0.6138,-1.62225 0.565368,-2.729604 -0.03168,-0.724182 -0.08664,-0.993558 -0.30396,-1.437756 -0.33837,-0.69159 -1.184784,-1.484953 -2.01528,-1.887625 -0.345366,-0.16743 -2.262852,-0.839916 -4.258554,-1.492464 -2.437189,-0.796902 -3.410779,-1.08726 -3.684055,-1.091232 z m -13.565953,1.38 c 0.02556,-6e-4 0.05418,-5.88e-4 0.08511,0 0.536904,0.0102 1.832485,0.206616 2.027449,0.334356 0.379788,0.24885 0.565374,0.620634 0.565374,1.12467 0,0.514122 -0.187986,0.874675 -0.592728,1.139875 -0.370224,0.242574 -2.330083,0.316446 -2.416525,0.09119 -0.06782,-0.176742 0.101766,-2.576041 0.18846,-2.662735 0.01536,-0.01536 0.06613,-0.02478 0.14286,-0.02736 z m -26.712427,1.054752 c -0.22872,6e-4 -0.899826,0.187596 -1.383042,0.392118 -0.13374,0.05658 -0.768415,0.283488 -1.410391,0.504582 -0.641976,0.221095 -1.221558,0.452473 -1.288812,0.516739 -0.09762,0.09328 -0.02394,0.400242 0.373872,1.522866 0.274068,0.77343 0.558792,1.58244 0.629214,1.79643 0.07041,0.21399 0.35145,1.023756 0.626166,1.799472 0.27471,0.775716 0.626947,1.78245 0.781189,2.237184 0.154242,0.454734 0.50412,1.461462 0.778146,2.237178 0.274026,0.775722 0.65379,1.86999 0.845022,2.431722 0.191238,0.56172 0.39384,1.080516 0.449874,1.152024 0.152712,0.194886 0.505752,0.108564 2.544186,-0.61401 1.016454,-0.360306 2.329584,-0.820956 2.918058,-1.024362 1.797564,-0.6213 4.653336,-1.627386 4.936392,-1.73868 0.147114,-0.05784 0.267486,-0.161082 0.267486,-0.231012 0,-0.06992 -0.22242,-0.761034 -0.495462,-1.535022 -0.273042,-0.773982 -0.519702,-1.48395 -0.547134,-1.577574 -0.09394,-0.320556 -0.07967,-0.323262 -4.258548,1.148988 -1.01646,0.358104 -1.928538,0.655794 -2.027448,0.66264 -0.198036,0.01368 -0.17358,0.07073 -1.27665,-3.10044 -0.643722,-1.85061 -1.010358,-2.896614 -1.838988,-5.246436 -0.243786,-0.691333 -0.49317,-1.285135 -0.553218,-1.322245 -0.01272,-0.0079 -0.03726,-0.0123 -0.06991,-0.01218 z M 66.00083,31.03918 c 0.195408,0.01488 1.437564,0.480318 1.778202,0.67176 0.64113,0.360354 0.85011,1.163142 0.480252,1.854186 -0.279552,0.522354 -1.16904,0.698214 -2.130786,0.422514 -0.606924,-0.173982 -0.972691,-0.325248 -0.972691,-0.404274 0,-0.07524 0.784339,-2.503626 0.820705,-2.54115 0.003,-0.003 0.01128,-0.0042 0.0243,-0.003 z m 13.01274,2.024406 c -0.162114,-0.0018 -0.82767,1.100538 -3.586788,5.942508 -1.863258,3.26982 -3.409698,6.022818 -3.434814,6.118812 -0.05478,0.209347 -0.006,0.244465 2.057856,1.428637 0.859074,0.492948 1.643052,0.886878 1.741716,0.875418 0.127746,-0.01488 1.16802,-1.755906 3.617172,-6.045865 2.380219,-4.169178 3.416647,-6.066498 3.361867,-6.1644 -0.111834,-0.19983 -3.515869,-2.152416 -3.757009,-2.15511 z M 12.734036,33.44962 c -0.24551,0 -3.7455367,2.086416 -3.7782835,2.252376 -0.015342,0.07777 0.7027831,1.387494 1.5958155,2.908944 0.893033,1.52145 2.06712,3.532068 2.611056,4.468284 2.134764,3.674287 2.802822,4.766383 2.908944,4.766167 0.06076,-9.6e-5 0.914052,-0.475152 1.896738,-1.054758 0.982686,-0.5796 1.822758,-1.116696 1.866342,-1.194582 0.0543,-0.097 -0.242322,-0.691153 -0.942288,-1.887619 -0.562038,-0.960696 -2.14137,-3.662778 -3.50775,-6.003306 -1.74666,-2.99193 -2.533168,-4.255506 -2.650574,-4.255506 z m 75.623401,5.301144 c -0.01356,0.0018 -0.02604,0.006 -0.03648,0.01218 -0.148956,0.09169 -1.827252,1.916478 -7.325544,7.951717 -1.114729,1.22358 -2.027449,2.297946 -2.027449,2.386122 0,0.08818 0.551052,0.66249 1.224984,1.276656 1.679089,1.530234 1.706467,1.553262 1.838983,1.553262 0.06442,0 0.484938,-0.404886 0.933174,-0.899742 1.885098,-2.081184 3.91203,-4.258536 3.939384,-4.231188 0.01614,0.0162 -0.03372,0.444852 -0.109428,0.951414 -0.253224,1.694598 -0.911808,6.459834 -0.975732,7.055016 l -0.06382,0.586656 0.620082,0.589692 c 0.0054,0.0054 0.0098,0.01 0.01518,0.01518 l 0.0608,0 0,0.05778 c 0.724356,0.689052 1.315746,1.22883 1.73868,1.589736 l 0.240126,0 0,0.200616 c 0.24717,0.200646 0.407838,0.310044 0.46203,0.310044 0.08782,0 0.463248,-0.343812 0.832866,-0.762954 0.66537,-0.754524 3.514488,-3.889548 5.678064,-6.24648 2.831827,-3.08493 2.933941,-3.201636 2.902861,-3.389208 -0.03336,-0.201144 -2.873736,-2.829907 -3.057883,-2.829907 -0.06041,0 -0.672894,0.622195 -1.361766,1.383043 -2.98188,3.29343 -3.451602,3.791898 -3.51687,3.726606 -0.03072,-0.03066 0.04254,-0.723102 0.164136,-1.538064 0.291714,-1.955334 0.528,-3.571717 0.799428,-5.456167 l 0.22494,-1.544142 -0.680886,-0.644406 C 89.139873,39.208588 88.560531,38.720518 88.357425,38.750788 Z M 3.4387912,39.227986 c -0.1927194,0.01986 -0.5421151,0.31431 -1.6748461,1.373922 -0.8720815,0.81579 -1.53502275,1.51224 -1.53502275,1.611012 0,0.09555 0.68939225,0.914778 1.53198315,1.823796 0.8425908,0.909012 1.5319825,1.695415 1.5319825,1.747795 0,0.05238 -0.1504657,0.221568 -0.3343615,0.373872 -0.1838946,0.15231 -0.8879388,0.800514 -1.5654187,1.440798 l -1.23105725,1.164186 -0.39819423,-0.43467 C -1.7424012,46.673261 -3.0634789,45.316409 -3.1724443,45.316409 c -0.148812,0 -3.2615426,2.895042 -3.2615426,3.033564 0,0.05082 0.2327514,0.340764 0.5167404,0.644412 1.1742571,1.255512 6.03889605,6.490068 7.2495617,7.79973 1.4540077,1.572906 1.7329159,1.848108 1.8724232,1.848108 0.05283,0 0.7610088,-0.621462 1.5745381,-1.38 0.8135268,-0.758532 1.5197401,-1.457934 1.5684583,-1.556298 0.1059582,-0.213942 0.094576,-0.2283 -1.9848902,-2.459076 -0.8292162,-0.88956 -1.5208111,-1.671666 -1.5350233,-1.735638 -0.035706,-0.16071 3.0876656,-3.030432 3.1825124,-2.924148 0.5425747,0.608058 3.2080455,3.461052 3.4226445,3.662784 0.2262486,0.212676 0.3252198,0.246684 0.4681056,0.17022 0.3381652,-0.180984 3.1186802,-2.83422 3.1186802,-2.97582 0,-0.0775 -0.947252,-1.15761 -2.106478,-2.40132 C 9.754061,45.799217 7.9485097,43.861444 6.900951,42.738784 5.8533917,41.616118 4.7105801,40.384474 4.3628446,40.00006 4.0151086,39.615646 3.6341866,39.27061 3.5147824,39.23407 c -0.022908,-0.007 -0.048456,-0.0089 -0.075991,-0.006 z M 102.77146,53.389709 c -0.11851,2.88e-4 -1.28821,0.671112 -2.5989,1.489434 -1.3107,0.818316 -3.93072,2.443194 -5.820937,3.6111 -1.890204,1.167906 -3.459312,2.181601 -3.486468,2.252377 -0.02718,0.07078 0.598992,1.170924 1.38912,2.443878 0.276996,0.446268 0.691284,1.113852 1.063872,1.714362 l 0.717354,1.155066 c 0.454212,0.732306 0.889482,1.43562 1.252338,2.021364 1.647847,2.660034 1.752109,2.820798 1.857229,2.820798 0.03426,0 0.65241,-0.363534 1.373922,-0.808548 0.864312,-0.533088 1.322652,-0.873216 1.340478,-0.997008 0.0156,-0.108294 -0.759372,-1.462518 -1.829856,-3.19467 -1.514742,-2.45097 -1.834014,-3.02682 -1.729566,-3.124752 0.07045,-0.06605 0.521604,-0.368718 1.00308,-0.671766 0.659274,-0.414942 0.894618,-0.5175 0.95445,-0.422508 0.04374,0.06937 0.813234,1.306434 1.711326,2.75088 1.106328,1.779312 1.692788,2.636058 1.817708,2.653608 0.23787,0.03342 2.40962,-1.34082 2.44995,-1.55022 0.0168,-0.08744 -0.71385,-1.363608 -1.62621,-2.83599 -0.91237,-1.472376 -1.65974,-2.715793 -1.65965,-2.759995 0,-0.141618 1.47704,-1.024602 1.56543,-0.936216 0.0464,0.04638 0.69452,1.06818 1.44079,2.270617 2.27094,3.659178 2.22658,3.595902 2.41955,3.595902 0.31217,0 2.55028,-1.44558 2.55028,-1.647486 0,-0.153012 -1.41422,-2.488884 -4.95463,-8.176657 -0.41626,-0.668718 -0.80974,-1.314342 -0.87238,-1.434714 -0.0662,-0.127152 -0.20312,-0.21915 -0.32828,-0.218856 z m -112.1143905,1.48335 c -1.1706615,0.0384 -2.2296785,0.629538 -3.0761235,1.72956 -0.393001,0.510732 -3.356681,5.325487 -4.051852,6.580837 l -0.279648,0.501546 0.319163,0.23709 c 0.175669,0.12975 1.741719,1.09248 3.480397,2.139912 1.738679,1.047444 4.2773942,2.584734 5.6415885,3.416562 1.3641942,0.831834 2.5460095,1.501884 2.6262559,1.489434 0.080247,-0.01242 0.6451387,-0.850032 1.2553753,-1.86027 0.8588815,-1.421868 1.0889857,-1.86972 1.0152421,-1.990968 -0.052398,-0.08614 -1.0112251,-0.715092 -2.1307934,-1.395192 -1.1195682,-0.680112 -2.0226919,-1.287708 -2.0061679,-1.352652 0.016524,-0.06494 0.3357024,-0.629316 0.7082383,-1.252332 0.372534,-0.623016 0.8162082,-1.456818 0.987885,-1.854186 0.2933238,-0.67893 0.311391,-0.793806 0.3130842,-1.890661 0.00168,-1.094724 -0.013296,-1.202286 -0.279648,-1.744758 -0.592092,-1.20591 -2.2830895,-2.436354 -3.6962126,-2.690088 -0.2809248,-0.0504 -0.5566315,-0.0727 -0.8267839,-0.06383 z m -0.3829956,4.504758 c 0.6675018,0 1.0718545,0.26709 1.2948901,0.851106 0.15282,0.400153 0.1528212,0.442057 -0.054714,0.997003 -0.2636946,0.70512 -0.7432483,1.501584 -0.9027751,1.501584 -0.064457,0 -0.5961234,-0.291996 -1.1824229,-0.647442 -0.5863,-0.355452 -1.081236,-0.658938 -1.100353,-0.674802 -0.07611,-0.06317 0.602965,-1.127148 0.997004,-1.562383 0.402001,-0.444024 0.440678,-0.465066 0.9483709,-0.465066 z M 98.470354,122.35325 c -0.564942,0 -1.450698,0.24854 -1.975776,0.55626 -1.066698,0.62513 -2.270053,2.0567 -3.118675,3.6263 l 0,0.0243 -0.01518,0 c -0.241524,0.44916 -0.455268,0.90901 -0.626178,1.3648 -0.208368,0.5557 -0.24621,0.82277 -0.24621,1.70525 0,0.9874 0.01722,1.08344 0.325248,1.72347 0.632472,1.31435 1.81305,2.10519 3.225067,2.16423 1.490082,0.0623 2.695812,-0.5776 4.85127,-2.58066 1.02817,-0.95547 1.55379,-1.30563 2.05177,-1.36176 0.49462,-0.0557 0.77812,0.0786 1.03044,0.49243 0.25777,0.42274 0.23659,0.90482 -0.0638,1.50766 -0.5216,1.04677 -1.50729,1.52175 -2.55026,1.22802 -0.95289,-0.26835 -0.82771,-0.36948 -1.933206,1.56238 -0.551052,0.96296 -1.00284,1.80359 -1.003086,1.86939 -6e-4,0.16352 0.695232,0.50862 1.459032,0.72342 0.78401,0.22051 2.15162,0.19157 2.86943,-0.0608 1.09469,-0.38485 2.27376,-1.47973 3.4044,-3.16427 1.09082,-1.62522 1.5409,-2.88618 1.53198,-4.27982 -0.009,-1.36019 -0.46825,-2.40011 -1.47422,-3.33146 -0.89813,-0.83149 -1.5005,-1.08239 -2.69618,-1.12467 -0.91886,-0.0325 -1.03063,-0.0155 -1.7022,0.26444 -0.89514,0.37323 -2.031556,1.22355 -3.519904,2.63235 -0.632022,0.59821 -1.306362,1.1538 -1.498554,1.23409 -0.323574,0.13519 -0.368196,0.13137 -0.601842,-0.0425 -0.304164,-0.22643 -0.44775,-0.58733 -0.364764,-0.91798 0.121056,-0.48228 0.685176,-1.18899 1.13379,-1.41951 0.43863,-0.22541 0.55122,-0.22898 1.468158,-0.0608 l 0.349548,0.0638 0.987894,-1.71133 c 0.543714,-0.94003 0.987884,-1.79005 0.987884,-1.89066 0,-0.30321 -1.415258,-0.79639 -2.285822,-0.79639 z m -102.0561905,0.97269 c -0.079453,0 -1.4416453,0.84462 -3.0274898,1.87851 -1.5858439,1.03388 -4.1913037,2.72746 -5.7874907,3.76308 -2.687551,1.74373 -2.898384,1.9027 -2.863348,2.13383 0.05452,0.35973 2.202416,3.60503 2.386124,3.60503 0.134244,0 1.494051,-0.84585 3.8664317,-2.4074 0.7734085,-0.50907 0.7784071,-0.51158 0.9422911,-0.31309 0.090689,0.10986 0.1952904,0.394 0.2310132,0.63225 0.078226,0.52166 -0.085751,0.89511 -1.6444495,3.73573 -0.5701405,1.03904 -1.0365205,1.97003 -1.0365205,2.07 0,0.0999 0.08543,0.29885 0.188459,0.44378 0.103033,0.14495 0.6926213,1.04139 1.3100879,1.99098 0.6174685,0.94958 1.1598145,1.72652 1.2067411,1.72652 0.046926,0 0.1507116,-0.0766 0.2310132,-0.17022 0.3457963,-0.40315 2.3716646,-4.11486 2.5776212,-4.72361 0.1261956,-0.37301 0.2249346,-0.90104 0.2249346,-1.19459 0,-0.28909 0.025884,-0.52585 0.05775,-0.52585 0.031866,0 0.1926396,0.0937 0.3556392,0.20973 0.9817633,0.69909 2.5507778,0.88652 3.66277589,0.43467 1.94768951,-0.79142 3.03542541,-2.61789 2.59281981,-4.35581 -0.2991025,-1.17447 -0.5366671,-1.57527 -4.4287671,-7.54746 -0.4968241,-0.76235 -0.9661855,-1.38608 -1.0456363,-1.38608 z m -0.063833,5.54736 c 0.1132992,0.002 1.1543635,1.60111 1.3587229,2.08825 0.2899122,0.69104 0.1231296,1.26292 -0.4559466,1.56237 -0.5095915,0.26352 -0.9203467,0.18344 -1.4164765,-0.27357 -0.4038457,-0.372 -1.3177981,-1.6065 -1.4559919,-1.96665 -0.037902,-0.0988 0.2393652,-0.33551 0.9149346,-0.77816 0.5338213,-0.34977 1.0085329,-0.63306 1.0547575,-0.63224 z m 93.2685705,5.19172 c -1.063812,-0.005 -2.162898,0.45732 -3.431766,1.41343 -1.400094,1.055 -2.59101,2.48404 -3.112596,3.7327 -0.204144,0.48869 -0.252846,0.76621 -0.258378,1.47727 -0.0097,1.25722 0.257394,1.9281 1.106436,2.78128 0.835896,0.83994 1.455756,1.09809 2.632332,1.09428 1.032006,-0.003 1.997838,-0.31081 3.541188,-1.12468 2.106534,-1.11082 2.308284,-1.19457 2.863362,-1.19457 0.46284,0 0.549156,0.0357 0.802464,0.31915 0.588198,0.65834 0.204048,1.76557 -0.82983,2.40133 -0.406446,0.24993 -0.574062,0.295 -1.118586,0.29484 -0.558102,0 -0.708792,-0.0414 -1.136826,-0.31612 -0.270792,-0.17377 -0.557688,-0.31612 -0.638328,-0.31612 -0.18693,0 -2.899824,2.84935 -2.899824,3.04573 0,0.29298 1.131396,1.03753 2.121666,1.39518 0.5565,0.20098 0.791844,0.23181 1.62318,0.20669 0.892206,-0.0269 1.035888,-0.0598 1.74171,-0.39515 1.894188,-0.9001 3.909355,-2.8141 4.772257,-4.53212 1.154082,-2.29777 0.201792,-5.19755 -2.054803,-6.26167 -0.61797,-0.29141 -0.735864,-0.31159 -1.638372,-0.30397 -1.407042,0.0119 -1.56918,0.0756 -5.57472,2.19159 -0.794598,0.41976 -1.189824,0.46678 -1.477266,0.17934 -0.67233,-0.67233 0.50214,-2.14083 1.711326,-2.13991 0.305736,0 0.592578,0.0703 0.796374,0.19453 0.175164,0.1068 0.39165,0.19455 0.483312,0.19455 0.215592,0 2.942382,-2.7183 2.942382,-2.93327 0,-0.21613 -0.629388,-0.70639 -1.30401,-1.01523 -0.557094,-0.25507 -1.105452,-0.38644 -1.662684,-0.38908 z m -84.1678629,1.2493 c -0.045918,0.005 -0.060296,0.053 -0.1094274,0.0881 -0.1013322,0.0726 -1.7954311,1.94721 -3.7630845,4.16736 -1.96765329,2.22017 -3.9657734,4.47437 -4.4409267,5.00934 -1.0660758,1.2003 -1.09791,1.25692 -0.8693388,1.48032 0.097054,0.0949 1.4613517,1.3113 3.03356899,2.70224 1.57221791,1.39095 3.45353421,3.06441 4.17951631,3.7175 0.7358118,0.66193 1.4050015,1.18924 1.5137449,1.19153 0.1292346,0.002 0.5313912,-0.37653 1.1915419,-1.12162 0.5480574,-0.61859 0.997446,-1.19855 0.997005,-1.28882 -4.86e-4,-0.092 -1.1575207,-1.18994 -2.6323352,-2.49555 -1.4475799,-1.28149 -2.6543263,-2.3643 -2.6809699,-2.40741 -0.049302,-0.0797 1.2866305,-1.67155 1.4772691,-1.75995 0.057396,-0.0266 1.1823204,0.91052 2.4985903,2.08217 1.3162705,1.17161 2.4585692,2.13079 2.538107,2.13079 0.1532388,0 2.0092079,-2.04963 2.0092079,-2.21895 0,-0.0547 -1.0942738,-1.07127 -2.4317189,-2.25845 -1.3374457,-1.18721 -2.4307862,-2.18805 -2.428679,-2.22199 0.0021,-0.0339 0.275637,-0.35926 0.607929,-0.72343 l 0.6048901,-0.66264 1.9940101,1.77211 c 2.7142377,2.41079 3.2962057,2.90894 3.4013667,2.90894 0.143688,0 2.045681,-2.17037 2.045681,-2.33445 0,-0.0817 -1.805549,-1.75061 -4.012334,-3.70837 -3.992929,-3.54237 -4.5596153,-4.06603 -4.7236139,-4.04881 z m 72.0639779,8.41982 c -1.709856,0.0398 -3.58626,0.73089 -5.282904,1.9849 -1.286574,0.9509 -2.19204,2.28026 -2.565462,3.7722 -0.22824,0.91187 -0.1449,2.41598 0.191496,3.50168 0.719172,2.32109 2.192868,4.2839 3.878592,5.16132 1.508166,0.785 2.748834,0.94535 4.392288,0.56841 1.095882,-0.25136 3.132337,-1.22009 4.085293,-1.94538 1.575708,-1.19921 2.492502,-3.02244 2.492502,-4.95158 0,-1.97721 -1.11177,-4.57049 -2.662722,-6.21304 -0.611154,-0.64724 -1.730677,-1.33916 -2.620183,-1.62013 -0.596196,-0.18835 -1.239822,-0.27392 -1.9089,-0.25838 z M 16.6795,144.49405 c -0.04638,6e-4 -0.07801,0.0161 -0.100308,0.0395 -0.07498,0.0785 -0.583644,1.01829 -1.130754,2.08825 -0.547104,1.06996 -1.377012,2.68948 -1.845066,3.59894 -0.468054,0.90947 -1.434378,2.78837 -2.145988,4.17648 l -1.291851,2.52594 0.26445,0.19758 c 0.146228,0.10918 1.654189,0.90074 3.349693,1.75996 2.993538,1.51701 3.183066,1.5963 4.930308,2.03048 0.377922,0.0939 1.661874,-0.0346 2.194627,-0.21886 1.494438,-0.51676 2.356314,-1.21074 3.343608,-2.69008 2.334324,-3.49769 2.523936,-6.97603 0.49242,-9.04903 -0.837978,-0.8551 -1.352346,-1.15841 -5.665903,-3.35881 -1.672386,-0.8531 -2.194026,-1.10374 -2.395236,-1.10036 z m 59.978338,3.16428 c 0.388878,0.001 0.775182,0.0892 1.118586,0.26445 0.213468,0.1089 0.592818,0.42773 0.845028,0.70823 0.774126,0.86104 1.708278,3.02615 1.708278,3.96067 0,0.7812 -0.636372,1.68064 -1.504626,2.12472 -0.516318,0.26404 -1.4556,0.37978 -1.89978,0.23405 -0.844014,-0.27694 -1.533102,-0.987 -2.179422,-2.24934 -0.570138,-1.11351 -0.765996,-1.76278 -0.765996,-2.52291 0,-0.79179 0.230232,-1.2852 0.866304,-1.84506 0.503754,-0.44344 1.16349,-0.67674 1.811628,-0.67481 z m -57.452398,1.98489 c 0.01416,-0.002 0.02868,-0.001 0.0456,0 0.1131,0.01 0.298062,0.0945 0.65049,0.27965 1.990243,1.04584 2.232697,2.13441 1.027405,4.58379 -0.49482,1.00555 -0.982951,1.69191 -1.513747,2.11863 -0.471492,0.37903 -1.24176,0.44995 -1.969698,0.17934 -0.51507,-0.19147 -1.026594,-0.44047 -1.386072,-0.6748 l -0.21582,-0.14287 1.56846,-3.07612 c 0.86277,-1.69278 1.622808,-3.14019 1.690044,-3.2129 0.02874,-0.031 0.06087,-0.0499 0.103344,-0.0547 z m 43.612875,0.45594 c -0.804894,0.0211 -1.900086,0.18823 -3.468234,0.51675 -0.898968,0.18831 -1.854186,0.38013 -2.121678,0.4286 -1.300104,0.2354 -3.792222,0.78906 -3.860352,0.85716 -0.04224,0.0423 0.142842,1.14732 0.410352,2.45604 0.267504,1.30875 0.635826,3.12415 0.820704,4.03362 0.184884,0.90946 0.53736,2.61653 0.781188,3.79348 0.243828,1.17695 0.489042,2.40133 0.544104,2.7205 0.108846,0.631 0.220536,0.82912 0.46506,0.82678 0.08707,-6e-4 0.573888,-0.0891 1.082112,-0.19759 0.50823,-0.10843 1.235856,-0.2572 1.617096,-0.33132 0.38124,-0.0741 0.8793,-0.18504 1.106436,-0.24621 0.406662,-0.1095 0.412632,-0.11577 0.358674,-0.46811 -0.101892,-0.66537 -0.248478,-1.42318 -0.59577,-3.07917 -0.42648,-2.03357 -0.42909,-2.09237 -0.07903,-2.10647 0.529836,-0.0213 0.758268,0.0324 1.066914,0.24014 0.172602,0.11612 1.113798,1.16541 2.091282,2.33445 l 1.778196,2.12775 0.389076,-0.0608 c 0.214117,-0.0331 1.282687,-0.24772 2.373961,-0.47418 1.374642,-0.28529 2.01174,-0.45776 2.07912,-0.56538 0.07763,-0.12395 -0.2187,-0.55348 -1.477266,-2.12167 -1.542204,-1.92168 -2.330022,-2.68767 -3.024451,-2.94238 -0.133746,-0.0491 -0.30285,-0.11054 -0.376914,-0.13679 -0.08537,-0.0302 0.06231,-0.18675 0.404274,-0.43163 1.215181,-0.87018 1.791547,-2.32752 1.531981,-3.86643 -0.295734,-1.75328 -1.395331,-2.95737 -2.963659,-3.24634 -0.262326,-0.0483 -0.567312,-0.0704 -0.933176,-0.0608 z m -18.623923,1.88762 c -2.25723,-6e-4 -3.614934,0.48808 -4.921194,1.77516 -0.960864,0.94678 -1.53345,2.06184 -1.835946,3.57463 -0.275226,1.37639 -0.270504,3.20043 0.0091,4.31935 0.405672,1.62326 1.51506,3.22686 2.741766,3.96369 1.500402,0.90122 4.355934,1.32859 6.2556,0.93621 1.153734,-0.23832 1.91925,-0.65075 2.769114,-1.4955 0.570444,-0.56702 0.833466,-0.92608 1.15203,-1.57151 0.226885,-0.45965 0.419785,-0.98418 0.428593,-1.16418 l 0.01518,-0.32523 -1.604935,-0.61402 c -0.882714,-0.33699 -1.754304,-0.62226 -1.936254,-0.63528 -0.320664,-0.0229 -0.338568,-0.006 -0.583608,0.58969 -0.50307,1.22226 -1.204746,1.77002 -2.267586,1.76907 -0.858678,-6e-4 -1.294008,-0.14713 -1.78731,-0.60185 -0.526884,-0.48566 -0.7131,-1.03092 -0.787266,-2.31621 -0.05964,-1.03276 0.144744,-2.48235 0.44379,-3.15516 0.59676,-1.34263 2.111784,-1.90408 3.401364,-1.26144 0.566004,0.28202 0.874146,0.63547 1.176342,1.34047 l 0.203652,0.47419 0.607938,-0.0669 c 0.601902,-0.0674 2.72793,-0.40446 3.170353,-0.50155 0.207408,-0.0455 0.225738,-0.0887 0.179334,-0.43466 -0.02838,-0.21191 -0.248292,-0.79019 -0.489378,-1.28577 -1.114771,-2.29154 -3.068533,-3.31214 -6.340711,-3.31323 z m 16.778857,1.58974 c 0.500388,0 0.623946,0.0386 0.893658,0.27965 0.278274,0.24864 0.311322,0.33577 0.316128,0.81462 0.0084,0.83667 -0.389658,1.1342 -2.051766,1.52896 -1.056048,0.25082 -1.186332,0.24995 -1.243218,-0.0213 -0.02526,-0.12037 -0.14058,-0.64802 -0.25533,-1.17331 -0.11475,-0.52529 -0.191862,-0.9686 -0.173262,-0.98484 0.120414,-0.10517 2.037594,-0.4438 2.51379,-0.4438 z"
       id="path3099-4-2" /><path
       style="fill:#ff0000;fill-opacity:1"
       d="m 33.674171,55.62506 -0.09732,26.635544 -26.6517544,0.09726 0,26.538326 26.6517544,0.0974 0.212754,26.65984 26.33261,0.0637 0.270522,-26.6568 26.612246,-0.28554 0,-26.295286 -26.61833,-0.300756 -0.158046,-26.553518 z"
       id="path3031-3" /></g></svg>